<?xml version="1.0" standalone="no"?>
<!DOCTYPE svg PUBLIC "-//W3C//DTD SVG 1.1//EN" "http://www.w3.org/Graphics/SVG/1.1/DTD/svg11.dtd" >
<svg xmlns="http://www.w3.org/2000/svg" width="100%" height="100%">
<metadata>
Created by FontXChange 20110222 at Sat Feb  1 10:17:18 2014
 By Marnu Lombard
Copyright (c) 2011, Carolina Giovagnoli (caro@huertatipografica.com.ar), Copyright (c) 2011, Andres Torresi (andres@huertatipografica.com.ar), with Reserved Font Name Cambo.
</metadata>
<defs>
<font id="Cambo-Regular" horiz-adv-x="688" >
  <font-face 
    font-family="Cambo"
    font-weight="400"
    font-stretch="normal"
    units-per-em="1000"
    panose-1="2 0 0 0 0 0 0 0 0 0"
    ascent="800"
    descent="-200"
    x-height="506"
    cap-height="676"
    bbox="-22 -243 1029 879"
    underline-thickness="50"
    underline-position="-50"
    stemh="40"
    stemv="92"
    unicode-range="U+0020-F6C3"
  />
<missing-glyph horiz-adv-x="253" 
 />
    <glyph glyph-name=".notdef" horiz-adv-x="253" 
 />
    <glyph glyph-name="B" unicode="B" horiz-adv-x="650" 
d="M43 0l6 40c44 5 72 13 97 28v540c-24 14 -57 23 -103 28l5 40h281c164 0 243 -61 243 -169c0 -75 -40 -124 -118 -147c91 -27 147 -86 147 -169c0 -115 -88 -191 -244 -191h-314zM241 53h116c97 0 146 49 146 137s-56 140 -173 140h-89v-277zM241 383h90
c101 0 147 39 147 122s-46 121 -150 121c-18 0 -49 -1 -87 -3v-240z" />
    <glyph glyph-name="C" unicode="C" horiz-adv-x="605" 
d="M533 173l50 -18c-56 -154 -200 -162 -229 -162c-213 0 -306 108 -306 343c0 227 102 346 306 346c98 0 216 -39 216 -140c0 -50 -30 -84 -62 -84c-30 0 -55 17 -62 42c14 20 20 38 20 54c0 50 -47 73 -111 73c-143 0 -201 -87 -201 -291s55 -288 200 -288
c29 0 137 7 179 125z" />
    <glyph glyph-name="D" unicode="D" horiz-adv-x="710" 
d="M43 0l6 40c35 4 67 10 97 28v540c-30 17 -68 24 -103 28l5 40h244c243 0 371 -100 371 -338c0 -241 -127 -338 -377 -338h-243zM241 53h63c161 0 252 67 252 285c0 215 -89 285 -249 285c-51 0 -52 -1 -66 -1v-569z" />
    <glyph glyph-name="E" unicode="E" horiz-adv-x="633" 
d="M43 0l6 40c35 4 80 15 97 28v540c-30 17 -68 24 -103 28l5 40h510l9 -162c-7 -3 -18 -5 -30 -5c-5 0 -11 0 -16 1c-7 33 -22 75 -50 109h-230v-249l155 11c37 3 54 47 60 71h34v-210h-34c-5 25 -15 75 -61 78l-154 11v-270h256c29 38 44 86 51 121c7 1 14 2 21 2
s14 -1 23 -2l-10 -182h-539z" />
    <glyph glyph-name="F" unicode="F" horiz-adv-x="600" 
d="M43 0l6 40c35 4 80 15 97 28v540c-30 17 -68 24 -103 28l5 40h510l9 -162c-9 -3 -19 -5 -30 -5c-5 0 -11 0 -16 1c-7 33 -22 75 -50 109h-230v-249l155 11c37 3 54 47 60 71h34v-210h-34c-5 25 -15 75 -61 78l-154 11v-263c27 -17 68 -24 103 -28l-5 -40h-296z" />
    <glyph glyph-name="G" unicode="G" horiz-adv-x="658" 
d="M483 71v196l-105 8v40l198 15v-287c-79 -33 -157 -50 -232 -50c-203 0 -296 108 -296 343c0 227 102 345 306 345c98 0 222 -38 222 -146c0 -43 -30 -77 -62 -77c-30 0 -55 17 -62 42c14 20 20 38 20 54c0 47 -56 72 -117 72c-143 0 -201 -86 -201 -290s55 -288 190 -288
c49 0 95 8 139 23z" />
    <glyph glyph-name="H" unicode="H" horiz-adv-x="796" 
d="M43 0l6 40c35 4 67 10 97 28v540c-30 17 -68 24 -103 28l5 40h296l-6 -40c-35 -4 -67 -10 -97 -28v-233h314v233c-30 17 -68 24 -103 28l5 40h296l-6 -40c-35 -4 -67 -10 -97 -28v-540c30 -17 68 -24 103 -28l-5 -40h-296l6 40c35 4 67 10 97 28v251h-314v-251
c30 -17 68 -24 103 -28l-5 -40h-296z" />
    <glyph glyph-name="I" unicode="I" horiz-adv-x="401" 
d="M50 0l6 40c35 4 67 10 97 28v540c-30 17 -68 24 -103 28l5 40h296l-6 -40c-35 -4 -67 -10 -97 -28v-540c30 -17 68 -24 103 -28l-5 -40h-296z" />
    <glyph glyph-name="J" unicode="J" horiz-adv-x="360" 
d="M33 -179l-12 33c63 28 125 74 125 179v575c-30 17 -68 24 -103 28l5 40h296l-6 -40c-35 -4 -67 -10 -97 -28v-559c0 -132 -83 -195 -208 -228z" />
    <glyph glyph-name="K" unicode="K" horiz-adv-x="677" 
d="M43 0l6 40c35 4 67 10 97 28v540c-30 17 -68 24 -103 28l5 40h296l-6 -40c-35 -4 -67 -10 -97 -28v-540c30 -17 68 -24 103 -28l-5 -40h-296zM485 51l-235 308l201 225c7 7 9 14 9 20c0 18 -28 28 -64 30l7 42h250l-4 -40c-31 -2 -76 -4 -105 -41l-194 -216l223 -292
c21 -23 50 -40 104 -46l-6 -41h-168c0 17 -10 40 -18 51z" />
    <glyph glyph-name="L" unicode="L" horiz-adv-x="566" 
d="M43 0l6 40c35 4 67 10 97 28v540c-30 17 -68 24 -103 28l5 40h296l-6 -40c-35 -4 -67 -10 -97 -28v-547h230c22 28 31 75 39 103l43 -6l-27 -158h-483z" />
    <glyph glyph-name="M" unicode="M" horiz-adv-x="947" 
d="M39 0l6 40c35 4 67 10 97 28v540c-30 17 -68 24 -103 28l5 40h222l215 -543l207 543h220l-6 -40c-35 -4 -67 -10 -97 -28v-540c30 -17 68 -24 103 -28l-5 -40h-292l6 40c35 4 67 10 97 28h-4v498l-212 -566h-64l-223 575v-507c30 -17 68 -24 103 -28l-5 -40h-270z" />
    <glyph glyph-name="N" unicode="N" horiz-adv-x="759" 
d="M30 0l6 40c35 4 67 10 97 28v540c-30 17 -68 24 -103 28l5 40h178l359 -499v431c-30 17 -68 24 -103 28l5 40h270l-6 -40c-35 -4 -67 -10 -97 -28v-608h-65l-374 520v-452c30 -17 68 -24 103 -28l-5 -40h-270z" />
    <glyph glyph-name="O" unicode="O" 
d="M344 48c143 0 191 89 191 290s-48 289 -191 289s-190 -88 -190 -289s47 -290 190 -290zM344 -6c-205 0 -296 121 -296 344s91 343 296 343s296 -120 296 -343s-91 -344 -296 -344z" />
    <glyph glyph-name="P" unicode="P" horiz-adv-x="610" 
d="M44 0l6 40c35 4 67 10 97 28v540c-30 17 -68 24 -103 28l5 40h289c165 0 236 -70 236 -189c0 -150 -112 -193 -283 -193h-49v-226c30 -17 68 -24 103 -28l-5 -40h-296zM242 343h49c114 0 186 43 186 146c0 96 -52 142 -139 142c-51 0 -76 -6 -96 -9v-279z" />
    <glyph glyph-name="Q" unicode="Q" 
d="M321 -5c-189 8 -273 128 -273 343c0 223 91 343 296 343s296 -120 296 -343c0 -199 -72 -316 -233 -339c25 -66 88 -120 162 -145c1 -2 2 -5 2 -9c0 -9 -5 -18 -12 -24c-127 23 -198 93 -238 174zM344 48c143 0 191 89 191 290s-48 289 -191 289s-190 -88 -190 -289
s47 -290 190 -290z" />
    <glyph glyph-name="R" unicode="R" horiz-adv-x="683" 
d="M48 0l6 40c44 5 72 13 97 28v540c-24 14 -57 23 -103 28l5 40h289c163 0 246 -60 246 -179c0 -90 -46 -145 -146 -169c26 -16 43 -42 63 -83l83 -177c20 -14 49 -22 89 -27l-6 -41h-162l-92 225c-34 82 -44 89 -134 89h-37v-246c20 -13 46 -20 103 -28l-5 -40h-296z
M246 363h49c133 0 196 44 196 136c0 87 -51 132 -149 132c-33 0 -46 -1 -96 -9v-259z" />
    <glyph glyph-name="S" unicode="S" horiz-adv-x="567" 
d="M71 48v174l54 6c7 -58 15 -105 38 -158c28 -11 60 -23 120 -23c78 0 132 43 132 117c0 181 -334 112 -334 342c0 107 80 178 219 178c108 0 200 -58 200 -135c0 -45 -18 -68 -54 -68s-51 15 -62 31c10 9 23 25 23 54c0 34 -37 63 -108 63c-77 0 -126 -34 -126 -101
c0 -168 340 -105 340 -346c0 -125 -101 -190 -244 -190c-81 0 -170 36 -198 56z" />
    <glyph glyph-name="T" unicode="T" horiz-adv-x="588" 
d="M144 0l6 40c35 4 67 10 97 28v559c-61 -1 -103 -3 -133 -6c-28 -39 -43 -93 -44 -124c-8 -1 -17 -2 -26 -2c-7 0 -14 1 -22 2v182s140 -3 272 -3c103 0 272 3 272 3v-182c-8 -1 -15 -2 -22 -2c-9 0 -18 1 -26 2c-2 31 -17 83 -44 123c-29 3 -70 6 -132 7v-559
c30 -17 68 -24 103 -28l-5 -40h-296z" />
    <glyph glyph-name="U" unicode="U" horiz-adv-x="772" 
d="M137 223v385c-24 14 -57 23 -103 28l5 40h298l-6 -40c-45 -6 -72 -14 -97 -28v-385c0 -126 54 -175 169 -175c113 0 179 64 179 181v379c-24 14 -57 23 -103 28l5 40h270l-6 -40c-45 -6 -72 -14 -97 -28v-379c0 -152 -89 -237 -248 -237c-188 0 -266 71 -266 231z" />
    <glyph glyph-name="V" unicode="V" horiz-adv-x="699" 
d="M311 0l-230 609c-20 13 -50 22 -81 27l5 40h285l-6 -40c-35 -4 -67 -10 -97 -28l173 -477l173 478c-30 16 -67 23 -101 27l5 40h262l-6 -40c-31 -4 -62 -10 -89 -28l-229 -608h-64z" />
    <glyph glyph-name="W" unicode="W" horiz-adv-x="1027" 
d="M272 0l-169 609c-30 16 -67 23 -101 27l5 40h302l-6 -40c-35 -4 -66 -10 -96 -28l122 -478l170 539h57l175 -530l124 469c-30 17 -68 24 -103 28l5 40h272l-6 -40c-35 -4 -69 -10 -99 -28l-169 -608h-76l-166 507l-162 -507h-79z" />
    <glyph glyph-name="X" unicode="X" horiz-adv-x="704" 
d="M-2 0l6 40c58 4 90 18 117 54l183 243l-190 263c-17 23 -38 31 -96 36l5 40h301l-6 -40c-42 -4 -70 -14 -85 -29l138 -192l145 193c-25 16 -50 24 -85 28l5 40h243l-6 -40c-49 -4 -74 -14 -93 -40l-173 -230l198 -274c20 -28 55 -46 102 -52l-5 -40h-304l6 40
c47 0 75 7 93 30l-157 217l-166 -220c13 -19 44 -27 101 -27l-5 -40h-272z" />
    <glyph glyph-name="Y" unicode="Y" horiz-adv-x="646" 
d="M171 0l6 40c37 4 70 10 102 28v196l-190 336c-21 28 -61 33 -91 36l5 40h291l-6 -40c-34 -4 -65 -8 -94 -24l146 -265l148 264c-28 14 -68 21 -102 25l5 40h257l-6 -40c-27 -1 -64 -2 -86 -32l-182 -333v-203c31 -17 71 -24 108 -28l-5 -40h-306z" />
    <glyph glyph-name="Z" unicode="Z" horiz-adv-x="604" 
d="M46 -4l-4 53l379 571c-26 0 -56 1 -90 1c-52 0 -120 0 -173 -4c-26 -23 -44 -73 -51 -117c-7 -1 -15 -2 -23 -2c-7 0 -13 1 -19 2l-13 156l28 24s144 -4 252 -4c90 0 178 3 206 4l9 -42l-388 -582c29 -1 61 -1 98 -1c48 0 122 0 173 1c30 37 56 84 69 136c7 1 16 2 24 2
s16 -1 23 -2l-9 -195c-49 2 -194 3 -281 3c-108 0 -210 -4 -210 -4z" />
    <glyph glyph-name="a" unicode="a" horiz-adv-x="508" 
d="M345 0l-11 48c-45 -43 -92 -56 -147 -56c-85 0 -135 46 -135 124c0 93 68 148 194 157l85 6v88c0 72 -27 103 -90 103c-54 0 -85 -18 -85 -49c0 -18 12 -32 33 -40c0 -33 -22 -51 -62 -51c-37 0 -62 25 -62 62c0 74 68 121 176 121c114 0 182 -54 182 -146v-301
c13 -10 44 -23 75 -29l-4 -37h-149zM331 99v136l-81 -7c-64 -6 -103 -45 -103 -103s23 -88 68 -88c39 0 72 18 116 62z" />
    <glyph glyph-name="b" unicode="b" horiz-adv-x="550" 
d="M89 0v598c0 47 -23 61 -75 63l3 32c48 8 99 24 143 37l21 -11v-281c24 42 63 75 124 75c148 0 204 -108 204 -258s-75 -263 -225 -263c-51 0 -93 25 -122 53c-11 -16 -17 -28 -22 -45h-51zM181 221v-129c27 -25 63 -54 107 -54c110 0 123 117 123 217
c0 111 -9 212 -106 212c-111 0 -124 -127 -124 -246z" />
    <glyph glyph-name="c" unicode="c" horiz-adv-x="469" 
d="M391 133l44 -15c-24 -76 -88 -123 -168 -123c-157 0 -226 79 -226 256c0 171 78 259 231 259c99 0 166 -46 166 -114c0 -34 -26 -64 -57 -64c-27 0 -50 16 -56 39c9 14 14 27 14 39c0 36 -27 61 -67 61c-91 0 -131 -67 -131 -220c0 -152 36 -213 126 -213
c59 0 101 32 124 95z" />
    <glyph glyph-name="d" unicode="d" horiz-adv-x="555" 
d="M374 0l-8 62c-29 -46 -74 -69 -133 -69c-127 0 -192 84 -192 249c0 176 84 271 237 271c33 0 60 -7 88 -18v95c0 54 -20 69 -75 71l3 32c48 8 99 24 143 37l21 -11v-653c18 -13 44 -23 75 -29l-4 -37h-155zM366 253v192c-19 11 -45 22 -91 22c-87 0 -139 -82 -139 -225
c0 -139 34 -203 107 -203c82 0 123 71 123 214z" />
    <glyph glyph-name="e" unicode="e" horiz-adv-x="486" 
d="M141 261v-16c0 -110 11 -207 129 -207c68 0 105 34 126 59l34 -34c-30 -35 -78 -71 -164 -71c-169 0 -224 101 -224 264c0 156 73 257 220 257s187 -86 191 -223l-22 -29h-290zM141 301c86 1 215 8 215 8c0 107 -21 160 -98 160c-83 0 -115 -71 -117 -168z" />
    <glyph glyph-name="f" unicode="f" horiz-adv-x="366" 
d="M49 0l4 39c32 5 49 11 71 27v384h-80l-5 37c31 5 61 11 85 19v59c0 109 40 199 156 199c69 0 132 -42 132 -102c0 -45 -29 -67 -56 -67c-23 0 -44 15 -49 42c13 13 20 26 20 39c0 22 -20 41 -54 41c-54 0 -70 -41 -70 -85c0 -35 13 -86 13 -126h112v-56h-112v-384
c18 -13 51 -23 82 -29l-4 -37h-245z" />
    <glyph glyph-name="g" unicode="g" horiz-adv-x="522" 
d="M105 103l89 63c-85 20 -135 81 -135 167c0 117 66 180 198 180c49 0 88 -9 119 -26c26 8 40 22 40 42c0 15 -12 30 -30 39c0 22 20 36 51 36c32 0 54 -21 54 -53c0 -43 -27 -76 -76 -94c26 -30 40 -72 40 -124c0 -105 -75 -173 -198 -173h-15l-55 -67
c2 -33 27 -42 78 -43h45c142 0 193 -64 193 -135c0 -95 -72 -150 -228 -150s-229 55 -229 136c0 77 26 99 83 131c-16 17 -24 41 -24 71zM257 204c71 0 100 39 100 132c0 94 -30 134 -100 134s-100 -40 -100 -134c0 -93 29 -132 100 -132zM285 0h-92
c-31 -21 -49 -50 -49 -85c0 -72 47 -106 131 -106s130 33 130 106c0 61 -45 85 -120 85z" />
    <glyph glyph-name="h" unicode="h" horiz-adv-x="587" 
d="M33 0l4 39c32 5 49 11 71 27v524c0 54 -20 69 -75 71l3 32c48 8 99 24 143 37l21 -11v-270c34 39 82 64 132 64c104 0 166 -55 166 -149v-298c13 -10 44 -23 75 -29l-4 -37h-237l3 37c27 4 51 14 71 29v288c0 73 -31 107 -92 107c-45 0 -90 -31 -114 -76v-319
c18 -13 44 -23 75 -29l-4 -37h-238z" />
    <glyph glyph-name="dotlessi" unicode="&#x131;" horiz-adv-x="299" 
d="M37 0l4 39c32 5 49 11 71 27v310c0 54 -20 69 -75 71l3 32c48 8 99 24 143 37l21 -11v-439c18 -13 44 -23 75 -29l-4 -37h-238z" />
    <glyph glyph-name="i" unicode="i" horiz-adv-x="299" 
d="M37 0l4 39c32 5 49 11 71 27v310c0 54 -20 69 -75 71l3 32c48 8 99 24 143 37l21 -11v-439c18 -13 44 -23 75 -29l-4 -37h-238zM152 593c-38 0 -56 23 -56 63s18 62 56 62s57 -22 57 -62s-19 -63 -57 -63z" />
    <glyph glyph-name="j" unicode="j" horiz-adv-x="306" 
d="M160 593c-38 0 -56 23 -56 63s18 62 56 62s57 -22 57 -62s-19 -63 -57 -63zM125 79h92v-114c0 -98 -17 -198 -123 -198c-62 0 -116 22 -116 83c0 32 20 59 51 59c18 0 34 -7 42 -21c-9 -8 -16 -21 -16 -35c0 -21 14 -39 40 -39c34 0 43 31 43 70c0 75 -13 99 -13 195z
M125 79v297c0 54 -20 69 -75 71l3 32c48 8 99 24 143 37l21 -11v-426h-92z" />
    <glyph glyph-name="k" unicode="k" horiz-adv-x="549" 
d="M35 0l4 39c32 5 49 11 71 27v524c0 54 -20 69 -75 71l3 32c48 8 99 24 143 37l21 -11v-421l139 148c24 25 33 60 33 60h144l3 -32c-43 -2 -83 -14 -115 -47l-96 -99l157 -260c23 -14 58 -25 97 -31l-4 -37h-154l-157 265l-47 -48v-151c18 -13 44 -23 75 -29l-4 -37h-238z
" />
    <glyph glyph-name="l" unicode="l" horiz-adv-x="302" 
d="M33 0l4 39c32 5 49 11 71 27v524c0 54 -20 69 -75 71l3 32c48 8 99 24 143 37l21 -11v-653c18 -13 44 -23 75 -29l-4 -37h-238z" />
    <glyph glyph-name="m" unicode="m" horiz-adv-x="855" 
d="M34 0l4 39c32 5 49 11 71 27v308c0 54 -20 69 -75 71l3 32c46 8 91 24 132 36l19 -10l8 -56c7 9 56 66 128 66c64 0 110 -22 138 -70c35 35 81 70 141 70c86 0 162 -43 162 -162v-285c13 -10 44 -23 75 -29l-4 -37h-237l3 37c27 4 51 14 71 29v288c0 75 -27 107 -81 107
c-51 0 -97 -47 -109 -84v-311c13 -10 44 -23 75 -29l-4 -37h-237l3 37c27 4 51 14 71 29v288c0 75 -27 107 -81 107c-51 0 -97 -47 -109 -84v-311c18 -13 44 -23 75 -29l-4 -37h-238z" />
    <glyph glyph-name="n" unicode="n" horiz-adv-x="594" 
d="M33 0l4 39c32 5 49 11 71 27v308c0 54 -20 69 -75 71l3 32c46 8 91 24 132 36l19 -10l10 -67c34 47 87 77 142 77c104 0 166 -55 166 -149v-298c13 -10 44 -23 75 -29l-4 -37h-237l3 37c27 4 51 14 71 29v288c0 73 -31 107 -92 107c-49 0 -99 -37 -121 -90v-305
c18 -13 44 -23 75 -29l-4 -37h-238z" />
    <glyph glyph-name="o" unicode="o" horiz-adv-x="528" 
d="M264 42c90 0 128 62 128 211s-38 210 -128 210s-127 -61 -127 -210s37 -211 127 -211zM264 -8c-148 0 -223 92 -223 261s75 260 223 260s223 -91 223 -260s-75 -261 -223 -261z" />
    <glyph glyph-name="p" unicode="p" horiz-adv-x="562" 
d="M29 -228l4 39c32 5 49 11 71 27v536c0 54 -20 69 -75 71l3 32c46 8 91 24 132 36l19 -10l9 -65c29 49 75 74 137 74c127 0 192 -84 192 -249c0 -176 -84 -271 -237 -271c-33 0 -61 7 -88 17v-171c18 -13 44 -23 75 -29l-4 -37h-238zM196 262v-203c19 -11 44 -21 91 -21
c87 0 139 82 139 225c0 139 -34 203 -107 203c-80 0 -123 -68 -123 -204z" />
    <glyph glyph-name="q" unicode="q" horiz-adv-x="551" 
d="M293 -228l4 39c32 5 49 11 71 27v226c-25 -42 -63 -72 -123 -72c-149 0 -204 109 -204 258c0 150 62 263 224 263c46 0 93 -29 121 -51l16 44h58v-668c18 -13 44 -23 75 -29l-4 -37h-238zM368 258v155c-28 27 -64 54 -106 54c-119 0 -123 -121 -123 -217
c0 -110 9 -212 106 -212c103 0 123 107 123 220z" />
    <glyph glyph-name="r" unicode="r" horiz-adv-x="440" 
d="M37 0l4 39c32 5 49 11 71 27v308c0 54 -20 69 -75 71l3 32c46 8 91 24 132 36l19 -10l11 -75c30 45 77 85 129 85c48 0 96 -28 96 -88c0 -33 -20 -67 -57 -67c-24 0 -49 12 -55 33c5 5 11 21 11 30c0 21 -10 33 -31 33c-40 0 -91 -73 -91 -143v-245c20 -13 50 -23 85 -29
l-4 -37h-248z" />
    <glyph glyph-name="s" unicode="s" horiz-adv-x="454" 
d="M57 35v133l58 7c5 -63 12 -92 29 -123c20 -6 47 -11 80 -11c58 0 97 38 97 84c0 133 -263 59 -263 253c0 82 70 134 178 134c91 0 164 -47 164 -105c0 -37 -17 -56 -50 -56c-26 0 -44 9 -57 29c11 9 17 23 17 39c0 30 -36 50 -81 50c-55 0 -90 -28 -90 -72
c0 -135 267 -71 267 -250c0 -97 -70 -153 -191 -153c-50 0 -126 20 -158 41z" />
    <glyph glyph-name="t" unicode="t" horiz-adv-x="357" 
d="M108 125v325h-88v30c73 25 117 69 138 131h43v-105h122v-56h-123v-333c0 -46 4 -74 50 -74c32 0 52 12 67 21l21 -32c-15 -12 -49 -40 -115 -40c-92 0 -115 41 -115 133z" />
    <glyph glyph-name="u" unicode="u" horiz-adv-x="588" 
d="M89 166v210c0 54 -20 69 -75 71l3 32c48 8 99 24 143 37l21 -11v-351c0 -67 26 -113 93 -113c33 0 80 22 114 85v250c0 54 -20 69 -75 71l3 32c48 8 99 24 143 37l21 -11v-439c13 -10 44 -23 75 -29l-4 -37h-143l-11 68c-38 -50 -86 -76 -135 -76
c-115 0 -173 59 -173 174z" />
    <glyph glyph-name="v" unicode="v" horiz-adv-x="543" 
d="M233 0l-157 429c-11 30 -44 39 -77 45l3 32h240l-3 -32c-24 -3 -47 -7 -67 -24l114 -346l114 346c-19 14 -40 20 -64 24l3 32h205l-3 -32c-28 -5 -66 -12 -73 -32l-163 -442h-72z" />
    <glyph glyph-name="w" unicode="w" horiz-adv-x="775" 
d="M219 0l-144 429c-10 30 -44 39 -77 45l3 32h240l-3 -32c-24 -3 -47 -7 -67 -24l97 -328l106 366h42l115 -366l96 328c-19 14 -40 20 -64 24l3 32h204l-3 -32c-28 -5 -65 -12 -72 -32l-149 -442h-66l-98 306l-97 -306h-66z" />
    <glyph glyph-name="x" unicode="x" horiz-adv-x="536" 
d="M5 0l4 39c34 3 62 5 77 25l139 183l-144 196c-14 19 -34 27 -62 31l3 32h231l-5 -32c-30 -2 -49 -10 -65 -22l100 -137l98 129c-20 15 -38 26 -72 30l3 32h217l-5 -32c-32 -4 -60 -10 -77 -32l-131 -172l150 -204c15 -21 36 -23 64 -26l-5 -40h-233l4 39c28 3 51 6 68 18
l-106 145l-108 -142c19 -15 42 -18 72 -21l-3 -39h-214z" />
    <glyph glyph-name="y" unicode="y" horiz-adv-x="550" 
d="M227 -86l26 81l-177 432c-12 30 -44 40 -77 46l3 33h235l-3 -32c-24 -3 -44 -7 -64 -24l125 -328l107 328c-19 14 -40 20 -64 24l3 32h210l-3 -32c-28 -4 -71 -12 -78 -32l-187 -541c-36 -105 -78 -144 -146 -144c-56 0 -99 35 -99 83c0 40 24 61 53 61
c12 0 26 -4 38 -12c-8 -11 -13 -24 -13 -37c0 -21 14 -37 36 -37c31 0 52 29 75 99z" />
    <glyph glyph-name="z" unicode="z" horiz-adv-x="468" 
d="M47 -4l-9 45l279 416c-15 1 -62 4 -81 4c-32 0 -76 -2 -97 -5c-14 -18 -25 -58 -29 -88c-9 -3 -20 -5 -31 -5c-9 0 -18 1 -26 4l-10 119l27 22c28 0 123 -2 187 -2c66 0 141 2 162 3l10 -37l-283 -422c16 -1 37 -1 103 -1c27 0 56 0 81 1c18 25 34 62 43 99
c9 2 18 3 28 3c8 0 16 -1 24 -2l-7 -128l-21 -25c-28 2 -95 3 -153 3c-116 0 -197 -4 -197 -4z" />
    <glyph glyph-name="ampersand" unicode="&#x26;" horiz-adv-x="762" 
d="M329 424v-52c-103 -12 -169 -73 -169 -164c0 -108 69 -159 200 -159c124 0 223 65 223 210c0 47 -10 92 -30 133c-65 -3 -91 -17 -91 -47c0 -17 8 -32 21 -43c-13 -13 -30 -20 -48 -20c-32 0 -54 26 -54 63c0 60 62 93 177 93c73 0 107 15 107 49c0 16 -8 32 -21 43
c13 13 30 20 48 20c32 0 54 -23 54 -58c0 -64 -51 -97 -154 -99c23 -45 36 -96 36 -148c0 -162 -113 -250 -282 -250c-176 0 -286 82 -286 208c0 102 52 163 142 193c-51 23 -86 66 -86 134c0 86 86 151 198 151c108 0 191 -54 191 -127c0 -43 -21 -71 -52 -71
c-20 0 -38 6 -54 19c7 13 11 26 11 43c0 48 -40 82 -96 82c-63 0 -104 -38 -104 -98c0 -45 26 -104 119 -105z" />
    <glyph glyph-name="at" unicode="@" horiz-adv-x="960" 
d="M645 -95l30 -39c-54 -35 -120 -52 -194 -52c-261 0 -421 190 -421 424s164 424 431 424c264 0 417 -161 417 -374c0 -162 -66 -291 -199 -291c-89 0 -128 24 -144 57c-52 -45 -91 -53 -138 -53c-78 0 -123 42 -123 116c0 81 49 136 177 147l75 6v73c0 67 -24 97 -79 97
c-48 0 -76 -18 -76 -48c0 -14 10 -26 31 -34c0 -34 -23 -52 -60 -52c-38 0 -60 27 -60 60c0 71 67 114 165 114c106 0 169 -51 169 -137v-226c0 -49 25 -69 69 -69c63 0 97 114 97 240c0 178 -96 328 -321 328c-207 0 -335 -170 -335 -378s124 -378 325 -378
c62 0 118 16 164 45zM556 103v121l-71 -6c-58 -5 -92 -43 -92 -92c0 -50 19 -78 60 -78c34 0 63 15 103 55z" />
    <glyph glyph-name="period" unicode="." horiz-adv-x="198" 
d="M101 -5c-33 0 -52 25 -52 55s20 54 52 54s53 -24 53 -54s-20 -55 -53 -55z" />
    <glyph glyph-name="periodcentered" unicode="&#xb7;" horiz-adv-x="198" 
d="M101 289c-33 0 -52 25 -52 55s20 54 52 54s53 -24 53 -54s-20 -55 -53 -55z" />
    <glyph glyph-name="comma" unicode="," horiz-adv-x="208" 
d="M75 -137l-18 25c42 28 61 58 61 94c0 22 -12 36 -31 36c-4 0 -7 -1 -19 -4c-8 8 -13 22 -13 39c0 30 25 51 60 51c38 0 63 -30 63 -76c0 -71 -39 -126 -103 -165z" />
    <glyph glyph-name="semicolon" unicode=";" horiz-adv-x="220" 
d="M82 -137l-18 25c42 28 61 58 61 94c0 22 -12 36 -31 36c-4 0 -7 -1 -19 -4c-8 8 -13 22 -13 39c0 30 25 51 60 51c38 0 63 -30 63 -76c0 -71 -39 -126 -103 -165zM121 360c-33 0 -52 25 -52 55s20 54 52 54s53 -24 53 -54s-20 -55 -53 -55z" />
    <glyph glyph-name="colon" unicode=":" horiz-adv-x="211" 
d="M113 7c-33 0 -52 25 -52 55s20 54 52 54s53 -24 53 -54s-20 -55 -53 -55zM113 360c-33 0 -52 25 -52 55s20 54 52 54s53 -24 53 -54s-20 -55 -53 -55z" />
    <glyph glyph-name="quoteleft" unicode="&#x2018;" horiz-adv-x="173" 
d="M103 727l21 -25c-30 -21 -44 -43 -44 -67s13 -37 30 -37c6 0 13 1 20 5c8 -8 13 -23 13 -39c0 -30 -25 -51 -60 -51c-38 0 -63 30 -63 76c0 56 27 100 83 138z" />
    <glyph glyph-name="quoteright" unicode="&#x2019;" horiz-adv-x="173" 
d="M70 513l-21 25c30 21 44 43 44 67s-13 37 -30 37c-6 0 -13 -1 -20 -5c-8 8 -13 23 -13 39c0 30 25 51 60 51c38 0 63 -30 63 -76c0 -56 -27 -100 -83 -138z" />
    <glyph glyph-name="quotesinglbase" unicode="&#x201a;" horiz-adv-x="215" 
d="M71 -140l-16 26c12 9 69 30 69 101c0 21 -18 34 -31 34c-7 0 -16 -1 -20 -5c0 0 -13 10 -13 37c0 31 26 53 56 53c45 0 67 -31 67 -74c0 -49 -10 -134 -112 -172z" />
    <glyph glyph-name="quotedblleft" unicode="&#x201c;" horiz-adv-x="339" 
d="M103 727l21 -25c-30 -21 -44 -43 -44 -67s13 -37 30 -37c6 0 13 1 20 5c8 -8 13 -23 13 -39c0 -30 -25 -51 -60 -51c-38 0 -63 30 -63 76c0 56 27 100 83 138zM269 727l21 -25c-30 -21 -44 -43 -44 -67s13 -37 30 -37c6 0 13 1 20 5c8 -8 13 -23 13 -39
c0 -30 -25 -51 -60 -51c-38 0 -63 30 -63 76c0 56 27 100 83 138z" />
    <glyph glyph-name="quotedblright" unicode="&#x201d;" horiz-adv-x="339" 
d="M70 513l-21 25c30 21 44 43 44 67s-13 37 -30 37c-6 0 -13 -1 -20 -5c-8 8 -13 23 -13 39c0 30 25 51 60 51c38 0 63 -30 63 -76c0 -56 -27 -100 -83 -138zM236 513l-21 25c30 21 44 43 44 67s-13 37 -30 37c-6 0 -13 -1 -20 -5c-8 8 -13 23 -13 39c0 30 25 51 60 51
c38 0 63 -30 63 -76c0 -56 -27 -100 -83 -138z" />
    <glyph glyph-name="quotedblbase" unicode="&#x201e;" horiz-adv-x="384" 
d="M72 -137l-18 25c42 28 61 58 61 94c0 22 -12 36 -31 36c-4 0 -7 -1 -19 -4c-8 8 -13 22 -13 39c0 30 25 51 60 51c38 0 63 -30 63 -76c0 -71 -39 -126 -103 -165zM264 -137l-18 25c42 28 61 58 61 94c0 22 -12 36 -31 36c-4 0 -7 -1 -19 -4c-8 8 -13 22 -13 39
c0 30 25 51 60 51c38 0 63 -30 63 -76c0 -71 -39 -126 -103 -165z" />
    <glyph glyph-name="quotesingle" unicode="'" horiz-adv-x="158" 
d="M95 513h-31s-29 140 -29 171c0 28 18 44 44 44c25 0 44 -16 44 -44c0 -30 -28 -171 -28 -171z" />
    <glyph glyph-name="quotedbl" unicode="&#x22;" horiz-adv-x="294" 
d="M95 513h-31s-29 140 -29 171c0 28 18 44 44 44c25 0 44 -16 44 -44c0 -30 -28 -171 -28 -171zM231 513h-31s-29 140 -29 171c0 28 18 44 44 44c25 0 44 -16 44 -44c0 -30 -28 -171 -28 -171z" />
    <glyph glyph-name="hyphen" unicode="-" horiz-adv-x="359" 
d="M30 241v58h299v-58h-299z" />
    <glyph glyph-name="endash" unicode="&#x2013;" horiz-adv-x="500" 
d="M0 241v58h500v-58h-500z" />
    <glyph glyph-name="emdash" unicode="&#x2014;" horiz-adv-x="850" 
d="M0 241v58h850v-58h-850z" />
    <glyph glyph-name="exclamdown" unicode="&#xa1;" horiz-adv-x="215" 
d="M86 243l56 10c0 -59 -3 -138 -3 -219c0 -93 4 -189 20 -259c0 0 -23 -18 -64 -18c-47 0 -60 34 -60 81c0 73 41 268 51 405zM113 352c-33 0 -52 25 -52 55s20 54 52 54s53 -24 53 -54s-20 -55 -53 -55z" />
    <glyph glyph-name="questiondown" unicode="&#xbf;" horiz-adv-x="392" 
d="M262 -95c14 21 29 32 52 32c38 0 53 -24 53 -62c0 -77 -87 -110 -164 -110c-100 0 -178 37 -178 137c0 150 173 189 173 287c0 14 -2 30 -6 47c11 9 29 18 47 18c35 0 53 -32 53 -67c0 -144 -182 -159 -182 -298c0 -48 40 -78 88 -78c40 0 76 15 76 55c0 11 -4 25 -12 39
zM240 352c-33 0 -52 25 -52 55s20 54 52 54s53 -24 53 -54s-20 -55 -53 -55z" />
    <glyph glyph-name="question" unicode="?" horiz-adv-x="428" 
d="M226 214c-11 -9 -29 -18 -47 -18c-35 0 -53 32 -53 67c0 144 182 159 182 298c0 48 -40 78 -88 78c-40 0 -76 -15 -76 -55c0 -11 4 -25 12 -39c-14 -21 -29 -32 -52 -32c-38 0 -53 24 -53 62c0 77 87 110 164 110c100 0 178 -37 178 -137c0 -150 -173 -189 -173 -287
c0 -14 2 -30 6 -47zM181 -7c-33 0 -52 25 -52 55s20 54 52 54s53 -24 53 -54s-20 -55 -53 -55z" />
    <glyph glyph-name="guillemotleft" unicode="&#xab;" horiz-adv-x="396" 
d="M166 85l-141 168l143 161l32 -22l-83 -139l83 -146zM322 85l-141 168l143 161l32 -22l-83 -139l83 -146z" />
    <glyph glyph-name="guillemotright" unicode="&#xbb;" horiz-adv-x="396" 
d="M40 107l82 146l-82 139l32 22l143 -161l-141 -168zM196 107l82 146l-82 139l32 22l143 -161l-141 -168z" />
    <glyph glyph-name="guilsinglleft" unicode="&#x2039;" horiz-adv-x="240" 
d="M166 85l-141 168l143 161l32 -22l-83 -139l83 -146z" />
    <glyph glyph-name="guilsinglright" unicode="&#x203a;" horiz-adv-x="240" 
d="M40 107l82 146l-82 139l32 22l143 -161l-141 -168z" />
    <glyph glyph-name="underscore" unicode="_" horiz-adv-x="539" 
d="M0 -108v57h539v-57h-539z" />
    <glyph glyph-name="slash" unicode="/" horiz-adv-x="387" 
d="M-10 -115l337 874l60 -22l-337 -874z" />
    <glyph glyph-name="bar" unicode="|" horiz-adv-x="269" 
d="M100 -121v870h69v-870h-69z" />
    <glyph glyph-name="brokenbar" unicode="&#xa6;" horiz-adv-x="269" 
d="M100 396v353h69v-353h-69zM100 -121v373h69v-373h-69z" />
    <glyph glyph-name="parenleft" unicode="(" horiz-adv-x="291" 
d="M266 -97l-25 -26s-201 143 -201 437s201 438 201 438l25 -26c-92 -96 -152 -227 -152 -411s60 -316 152 -412z" />
    <glyph glyph-name="parenright" unicode=")" horiz-adv-x="291" 
d="M50 -123l-25 26c92 96 152 228 152 412s-60 315 -152 411l25 26s201 -144 201 -438s-201 -437 -201 -437z" />
    <glyph glyph-name="bracketleft" unicode="[" horiz-adv-x="310" 
d="M100 -121v870h185v-34l-116 -10v-781l116 -10v-35h-185z" />
    <glyph glyph-name="backslash" unicode="\" horiz-adv-x="390" 
d="M330 -121l-330 858l60 22l330 -858z" />
    <glyph glyph-name="bracketright" unicode="]" horiz-adv-x="310" 
d="M25 -121v35l116 10v781l-116 10v34h185v-870h-185z" />
    <glyph glyph-name="braceleft" unicode="{" horiz-adv-x="287" 
d="M262 -86v-35c-93 0 -178 70 -178 163c0 45 27 135 27 181c0 61 -51 74 -51 74v35s51 13 51 74c0 46 -27 135 -27 180c0 93 85 163 178 163v-34c-70 -5 -102 -62 -102 -122c0 -57 18 -97 18 -155c0 -56 -19 -100 -47 -123c28 -24 47 -69 47 -124c0 -58 -18 -98 -18 -156
c0 -59 32 -117 102 -121z" />
    <glyph glyph-name="braceright" unicode="}" horiz-adv-x="287" 
d="M25 -121v35c70 4 102 62 102 121c0 58 -18 98 -18 156c0 55 19 100 47 124c-28 23 -47 67 -47 123c0 58 18 98 18 155c0 60 -32 117 -102 122v34c93 0 178 -70 178 -163c0 -45 -27 -134 -27 -180c0 -61 51 -74 51 -74v-35s-51 -13 -51 -74c0 -46 27 -136 27 -181
c0 -93 -85 -163 -178 -163z" />
    <glyph glyph-name="asterisk" unicode="*" horiz-adv-x="373" 
d="M170 574c-55 -6 -77 -30 -101 -30c-23 0 -39 17 -39 39c0 23 16 39 39 39c24 0 46 -25 102 -30c-41 55 -83 55 -83 95c0 19 17 37 40 37c53 0 25 -51 58 -123c33 75 6 123 59 123c22 0 39 -19 39 -39c0 -38 -42 -39 -82 -93c52 6 78 30 102 30c23 0 39 -16 39 -39
c0 -22 -17 -39 -39 -39c-24 0 -50 24 -102 30c42 -59 82 -54 82 -93c0 -21 -17 -40 -40 -40c-14 0 -26 8 -33 21c-12 20 -1 51 -25 103c-24 -52 -13 -83 -24 -103c-8 -13 -21 -21 -34 -21c-24 0 -40 21 -40 39c0 39 40 34 82 94z" />
    <glyph glyph-name="plus" unicode="+" horiz-adv-x="545" 
d="M237 87v181h-175v57h175v181h65v-181h181v-57h-181v-181h-65z" />
    <glyph glyph-name="plusminus" unicode="&#xb1;" horiz-adv-x="545" 
d="M82 290v57h155v151h65v-151h161v-57h-161v-151h-65v151h-155zM82 42v57h381v-57h-381z" />
    <glyph glyph-name="divide" unicode="&#xf7;" horiz-adv-x="545" 
d="M270 407c-25 0 -48 23 -48 48c0 26 23 49 48 49c27 0 50 -23 50 -49c0 -25 -23 -48 -50 -48zM222 136c0 27 23 50 48 50c27 0 50 -23 50 -50c0 -25 -23 -48 -50 -48c-25 0 -48 23 -48 48zM62 268v57h421v-57h-421z" />
    <glyph glyph-name="equal" unicode="=" horiz-adv-x="545" 
d="M67 180v57h411v-57h-411zM67 334v57h411v-57h-411z" />
    <glyph glyph-name="multiply" unicode="&#xd7;" horiz-adv-x="545" 
d="M119 90l-44 46l152 150l-149 148l44 46l150 -149l151 149l44 -46l-149 -148l152 -150l-44 -46l-154 151z" />
    <glyph glyph-name="less" unicode="&#x3c;" horiz-adv-x="570" 
d="M65 261v55l413 196l27 -55l-355 -169l355 -168l-27 -55z" />
    <glyph glyph-name="greater" unicode="&#x3e;" horiz-adv-x="570" 
d="M92 65l-27 55l355 168l-355 169l27 55l413 -197v-54z" />
    <glyph glyph-name="numbersign" unicode="#" horiz-adv-x="608" 
d="M117 5l33 125h-123l11 57h128l36 136h-119l11 57h124l36 134l55 -13l-33 -121h133l36 134l55 -13l-33 -121h110l-11 -57h-114l-37 -136h106l-11 -57h-111l-37 -139l-54 14l33 125h-133l-37 -139zM224 187h133l36 136h-132z" />
    <glyph glyph-name="percent" unicode="%" horiz-adv-x="762" 
d="M165 22l369 646l58 -28l-372 -651zM187 340c53 0 64 54 64 135c0 80 -11 134 -64 134c-52 0 -63 -54 -63 -134c0 -81 11 -135 63 -135zM187 298c-99 0 -146 69 -146 177s47 175 146 175s147 -67 147 -175s-48 -177 -147 -177zM574 35c53 0 64 54 64 135
c0 80 -11 134 -64 134c-52 0 -63 -54 -63 -134c0 -81 11 -135 63 -135zM564 -7c-99 0 -136 69 -136 177s47 175 146 175s147 -67 147 -175s-58 -177 -157 -177z" />
    <glyph glyph-name="zero" unicode="0" horiz-adv-x="594" 
d="M297 47c124 0 149 109 149 277c0 167 -25 275 -149 275s-149 -108 -149 -275c0 -168 25 -277 149 -277zM297 -6c-168 0 -247 129 -247 330c0 202 79 328 247 328s247 -126 247 -328c0 -201 -79 -330 -247 -330z" />
    <glyph glyph-name="one" unicode="1" horiz-adv-x="429" 
d="M42 0l3 37c59 6 109 16 144 31v477h-142v46c82 8 147 31 200 59l36 -14v-568c31 -16 108 -28 133 -31l-4 -37h-370z" />
    <glyph glyph-name="two" unicode="2" horiz-adv-x="533" 
d="M51 0v61c241 207 314 308 314 418c0 82 -37 123 -109 123c-65 0 -106 -45 -106 -99c0 -21 7 -42 22 -62c-13 -14 -34 -23 -55 -23c-33 0 -65 21 -65 79c0 80 91 155 204 155c129 0 209 -69 209 -183c0 -107 -79 -219 -301 -390h327v-79h-440z" />
    <glyph glyph-name="three" unicode="3" horiz-adv-x="521" 
d="M191 316v47c106 3 168 47 168 134c0 69 -37 106 -100 106c-67 0 -101 -42 -101 -91c0 -16 4 -29 11 -41c-17 -13 -35 -19 -54 -19c-31 0 -51 27 -51 69c0 72 82 132 197 132c118 0 197 -64 197 -156c0 -56 -23 -119 -138 -156c108 -26 146 -87 146 -165
c0 -104 -83 -183 -215 -183c-133 0 -213 56 -213 146c0 40 30 59 62 59c18 0 37 -7 51 -18c-6 -16 -9 -32 -9 -46c0 -54 42 -91 114 -91c74 0 116 52 116 133c0 84 -60 140 -181 140z" />
    <glyph glyph-name="four" unicode="4" horiz-adv-x="538" 
d="M28 162l-8 36l221 444c38 0 70 -7 90 -25l-226 -395h225v174c33 1 63 17 71 45h24v-218l93 -20v-41h-97v-161h-91v161h-302z" />
    <glyph glyph-name="five" unicode="5" horiz-adv-x="532" 
d="M113 314l-29 30l28 286l20 16c58 -2 103 -3 160 -3s97 1 133 2l21 -16s-2 -39 -8 -62h-270l-18 -185c41 18 83 28 126 28c128 0 210 -72 210 -202c0 -121 -88 -217 -222 -217c-123 0 -213 57 -213 139c0 41 23 66 61 66c19 0 37 -6 52 -18c-6 -14 -9 -27 -9 -43
c0 -55 45 -94 109 -94c84 0 128 57 128 166c0 97 -49 150 -135 150c-47 0 -93 -14 -144 -43z" />
    <glyph glyph-name="six" unicode="6" horiz-adv-x="542" 
d="M408 660l17 -38c-139 -57 -232 -132 -264 -268c37 23 82 38 132 38c121 0 204 -75 204 -189c0 -123 -88 -209 -219 -209c-153 0 -228 93 -228 251c0 223 151 356 358 415zM151 281c-1 -12 -1 -24 -1 -36c0 -129 38 -201 128 -201c76 0 119 58 119 158
c0 88 -41 140 -114 140c-56 0 -98 -23 -132 -61z" />
    <glyph glyph-name="seven" unicode="7" horiz-adv-x="481" 
d="M25 628l15 17s95 -2 202 -2s206 2 206 2l19 -47s-235 -346 -235 -483c0 -32 10 -61 37 -81c-22 -26 -46 -42 -70 -42c-38 0 -71 41 -71 99c0 110 68 193 264 476h-286c-13 -37 -20 -76 -23 -115c-7 -2 -14 -3 -21 -3s-14 1 -21 3c-5 66 -16 149 -16 176z" />
    <glyph glyph-name="eight" unicode="8" horiz-adv-x="566" 
d="M182 344c-56 28 -101 67 -101 145c0 99 83 163 203 163c122 0 196 -60 196 -155c0 -56 -44 -108 -109 -144c74 -33 140 -79 140 -179c0 -112 -90 -180 -225 -180c-141 0 -231 59 -231 175c0 76 57 135 127 175zM228 325c-53 -35 -76 -84 -76 -151c0 -80 50 -130 134 -130
c81 0 128 51 128 130c0 95 -97 117 -186 151zM319 375c51 33 69 70 69 123c0 67 -46 105 -105 105c-69 0 -110 -40 -110 -107c0 -66 70 -92 146 -121z" />
    <glyph glyph-name="nine" unicode="9" horiz-adv-x="537" 
d="M130 -11l-17 38c138 56 232 132 263 267c-36 -22 -81 -37 -131 -37c-121 0 -204 75 -204 189c0 123 88 209 219 209c153 0 228 -93 228 -251c0 -223 -151 -356 -358 -415zM387 368c0 11 1 23 1 36c0 129 -38 201 -128 201c-76 0 -119 -58 -119 -158
c0 -88 41 -140 114 -140c55 0 97 23 132 61z" />
    <glyph glyph-name="acute" unicode="&#xb4;" horiz-adv-x="261" 
d="M58 565l-24 26l90 125c8 13 19 18 34 18c21 0 39 -18 39 -37c0 -18 -11 -29 -27 -42z" />
    <glyph glyph-name="grave" unicode="`" horiz-adv-x="215" 
d="M173 565l-112 90c-16 13 -27 24 -27 42c0 19 18 37 39 37c15 0 26 -5 34 -18l90 -125z" />
    <glyph glyph-name="dieresis" unicode="&#xa8;" horiz-adv-x="370" 
d="M101 596c-35 0 -51 21 -51 57s16 56 51 56c34 0 51 -20 51 -56s-17 -57 -51 -57zM280 596c-34 0 -50 21 -50 57s16 56 50 56c35 0 52 -20 52 -56s-17 -57 -52 -57z" />
    <glyph glyph-name="circumflex" unicode="&#x2c6;" horiz-adv-x="373" 
d="M77 575l-24 26l100 115c9 11 20 17 33 17s24 -5 34 -17l100 -115l-24 -26l-110 83z" />
    <glyph glyph-name="ring" unicode="&#x2da;" horiz-adv-x="285" 
d="M50 650c0 51 36 89 91 89c56 0 94 -38 94 -89s-38 -89 -94 -89c-55 0 -91 38 -91 89zM141 603c27 0 49 21 49 47s-22 48 -49 48s-46 -22 -46 -48s19 -47 46 -47z" />
    <glyph glyph-name="cedilla" unicode="&#xb8;" horiz-adv-x="225" 
d="M88 -82l-20 22l43 70l28 -6l-19 -54c49 -9 82 -30 82 -85c0 -47 -43 -85 -103 -85c-70 0 -98 39 -98 71c0 22 13 42 36 42c6 0 12 -1 19 -4c-2 -8 -4 -15 -4 -22c0 -31 22 -51 48 -51c32 0 47 18 47 54c0 32 -28 44 -59 48z" />
    <glyph glyph-name="tilde" unicode="&#x2dc;" horiz-adv-x="398" 
d="M67 598c-15 4 -25 12 -35 21c12 30 49 89 108 89c47 0 81 -43 123 -43c30 0 51 20 71 43c15 -6 25 -13 35 -21c-13 -31 -51 -89 -105 -89c-53 0 -83 43 -127 43c-29 0 -50 -20 -70 -43z" />
    <glyph glyph-name="bullet" unicode="&#x2022;" horiz-adv-x="255" 
d="M128 227c-49 0 -93 46 -93 94c0 51 44 93 93 93c50 0 92 -42 92 -93c0 -48 -42 -94 -92 -94z" />
    <glyph glyph-name="mu" unicode="&#xb5;" horiz-adv-x="590" 
d="M91 -221v597c0 54 -20 69 -75 71l3 32c48 8 99 24 143 37l21 -11v-351c0 -67 26 -113 93 -113c33 0 80 22 114 85v250c0 54 -20 69 -75 71l3 32c48 8 99 24 143 37l21 -11v-439c13 -10 44 -23 75 -29l-4 -37h-143l-11 68c-38 -50 -86 -76 -135 -76c-31 0 -58 5 -81 13
v-226h-92z" />
    <glyph glyph-name="space" unicode=" " horiz-adv-x="253" 
 />
    <glyph glyph-name="exclam" unicode="!" horiz-adv-x="217" 
d="M131 206l-56 -10c0 59 3 138 3 219c0 93 -4 189 -20 259c0 0 23 18 64 18c47 0 60 -34 60 -81c0 -73 -41 -268 -51 -405zM101 -7c-33 0 -52 25 -52 55s20 54 52 54s53 -24 53 -54s-20 -55 -53 -55z" />
    <glyph glyph-name="germandbls" unicode="&#xdf;" horiz-adv-x="608" 
d="M35 0l4 39c34 5 50 11 71 27v489c0 118 71 184 198 184c128 0 201 -59 201 -162c0 -69 -62 -139 -149 -177c131 -29 215 -110 215 -215c0 -110 -78 -191 -183 -191c-95 0 -145 30 -145 88c0 38 26 62 59 62c13 0 27 -3 41 -11c-6 -14 -9 -27 -9 -39c0 -31 20 -53 61 -53
c51 0 81 50 81 143c0 105 -60 160 -200 180v57c68 12 134 88 134 156c0 74 -37 115 -105 115c-79 0 -107 -48 -107 -186v-506h-167z" />
    <glyph glyph-name="onesuperior" unicode="&#xb9;" horiz-adv-x="372" 
d="M86 356l3 30l75 18v291h-83v30c44 7 87 19 124 37l27 -11v-347l68 -18l-3 -30h-211z" />
    <glyph glyph-name="twosuperior" unicode="&#xb2;" horiz-adv-x="371" 
d="M42 356v43c153 126 199 188 199 254c0 45 -22 68 -64 68c-41 0 -62 -25 -62 -53c0 -13 5 -25 15 -39c-10 -10 -26 -17 -41 -17c-23 0 -46 14 -46 52c0 51 60 99 134 99c85 0 137 -44 137 -116c0 -65 -48 -133 -183 -235h200v-56h-289z" />
    <glyph glyph-name="threesuperior" unicode="&#xb3;" horiz-adv-x="371" 
d="M133 551v33c67 2 107 29 107 80c0 37 -22 57 -59 57c-39 0 -59 -23 -59 -48c0 -9 3 -17 8 -26c-14 -10 -27 -14 -40 -14c-23 0 -37 18 -37 46c0 46 54 84 129 84c78 0 128 -41 128 -99c0 -33 -12 -70 -78 -95c62 -17 88 -55 88 -101c0 -66 -58 -116 -144 -116
c-87 0 -140 40 -140 97c0 27 22 40 44 40c13 0 27 -5 38 -14c-4 -11 -6 -21 -6 -29c0 -31 25 -52 67 -52c44 0 69 26 69 74s-37 82 -111 83h-4z" />
    <glyph glyph-name="onequarter" unicode="&#xbc;" horiz-adv-x="797" 
d="M55 273l3 30l75 18v291h-83v30c44 7 87 19 124 37l27 -11v-347l68 -18l-3 -30h-211zM192 0l305 676l55 -25l-306 -678zM434 97l-6 27l141 274c28 0 50 -5 66 -18l-140 -240h129v108c22 0 41 10 46 27h24v-136l59 -10v-32h-61v-98h-68v98h-190z" />
    <glyph glyph-name="onehalf" unicode="&#xbd;" horiz-adv-x="797" 
d="M55 273l3 30l75 18v291h-83v30c44 7 87 19 124 37l27 -11v-347l68 -18l-3 -30h-211zM192 0l305 676l55 -25l-306 -678zM464 1v43c153 126 199 188 199 254c0 45 -22 68 -64 68c-41 0 -62 -25 -62 -53c0 -13 5 -25 15 -39c-10 -10 -26 -17 -41 -17c-23 0 -46 14 -46 52
c0 51 60 99 134 99c85 0 137 -44 137 -116c0 -65 -48 -133 -183 -235h200v-56h-289z" />
    <glyph glyph-name="threequarters" unicode="&#xbe;" horiz-adv-x="797" 
d="M141 468v33c67 2 107 29 107 80c0 37 -22 57 -59 57c-39 0 -59 -23 -59 -48c0 -9 3 -17 8 -26c-14 -10 -27 -14 -40 -14c-23 0 -37 18 -37 46c0 46 54 84 129 84c78 0 128 -41 128 -99c0 -33 -12 -70 -78 -95c62 -17 88 -55 88 -101c0 -66 -58 -116 -144 -116
c-87 0 -140 40 -140 97c0 27 22 40 44 40c13 0 27 -5 38 -14c-4 -11 -6 -21 -6 -29c0 -31 25 -52 67 -52c44 0 69 26 69 74s-37 82 -111 83h-4zM224 0l305 676l55 -25l-306 -678zM446 98l-6 27l141 274c28 0 50 -5 66 -18l-140 -240h129v108c22 0 41 10 46 27h24v-136
l59 -10v-32h-61v-98h-68v98h-190z" />
    <glyph glyph-name="ordfeminine" unicode="&#xaa;" horiz-adv-x="360" 
d="M230 352l-6 26c-28 -24 -58 -31 -94 -31c-60 0 -95 31 -95 84c0 63 47 100 134 106l51 4v52c0 49 -15 71 -54 71c-31 0 -51 -12 -51 -30c0 -8 4 -17 12 -27c-2 -23 -21 -34 -40 -34c-22 0 -44 14 -44 41c0 51 50 83 128 83c76 0 121 -39 121 -104v-195
c10 -7 30 -14 50 -18l-3 -28h-109zM220 410v97l-48 -4c-39 -3 -63 -29 -63 -66s16 -56 44 -56c22 0 46 11 67 29zM35 256v37h305v-37h-305z" />
    <glyph glyph-name="ordmasculine" unicode="&#xba;" horiz-adv-x="360" 
d="M188 384c56 0 80 40 80 138c0 97 -24 137 -80 137s-79 -40 -79 -137c0 -98 23 -138 79 -138zM188 347c-102 0 -153 61 -153 175c0 113 51 175 153 175s154 -62 154 -175c0 -114 -52 -175 -154 -175zM35 256v37h308v-37h-308z" />
    <glyph glyph-name="AE" unicode="&#xc6;" horiz-adv-x="889" 
d="M0 0l6 40c38 7 61 24 85 66l319 570h415l9 -162c-9 -3 -19 -5 -30 -5c-5 0 -11 0 -16 1c-7 33 -22 75 -50 109h-205v-245h130c31 0 54 30 60 73h34v-210h-34c-6 54 -29 81 -60 81h-130v-257h220c29 38 44 86 51 121c7 1 14 2 21 2s14 -1 23 -2l-10 -182h-503l6 40
c35 4 80 15 97 28v250h-153l-139 -257c28 -12 60 -18 91 -21l-5 -40h-232zM316 374h122v224z" />
    <glyph glyph-name="OE" unicode="&#x152;" horiz-adv-x="912" 
d="M556 61h220c29 38 44 86 51 121c7 1 14 2 21 2s14 -1 23 -2l-10 -182h-400c-41 0 -73 -6 -117 -6c-205 0 -296 121 -296 344s91 343 296 343c43 0 85 -5 117 -5h387l9 -162c-10 -3 -19 -5 -30 -5c-4 0 -12 0 -16 1c-7 33 -22 75 -50 109h-205v-245h130c31 0 54 30 60 73
h34v-210h-34c-7 54 -29 81 -60 81h-130v-257zM461 68v540c-25 10 -60 19 -117 19c-143 0 -190 -88 -190 -289s47 -290 190 -290c47 0 86 7 117 20z" />
    <glyph glyph-name="copyright" unicode="&#xa9;" horiz-adv-x="670" 
d="M335 93c131 0 239 109 239 244s-108 244 -239 244s-239 -109 -239 -244s108 -244 239 -244zM48 337c0 157 128 284 287 284s287 -127 287 -284s-127 -284 -287 -284s-287 127 -287 284zM423 277l30 -17c-19 -43 -56 -73 -114 -73c-80 0 -136 49 -136 149s58 151 140 151
c68 0 112 -38 112 -81c0 -26 -19 -38 -36 -38c-15 0 -30 8 -34 23c4 8 6 16 6 23c0 22 -20 35 -50 35c-40 0 -75 -30 -75 -113c0 -77 34 -111 75 -111c38 0 64 16 82 52z" />
    <glyph glyph-name="registered" unicode="&#xae;" horiz-adv-x="670" 
d="M335 93c131 0 239 109 239 244s-108 244 -239 244s-239 -109 -239 -244s108 -244 239 -244zM48 337c0 157 128 284 287 284s287 -127 287 -284s-127 -284 -287 -284s-287 127 -287 284zM206 194l4 24l39 10v226l-43 11l4 24h127c73 0 110 -27 110 -80
c0 -38 -17 -61 -61 -73c14 -8 20 -17 26 -31l36 -77l35 -9l-3 -25h-82l-38 98c-12 32 -23 34 -56 34v-98l42 -10l-3 -24h-137zM304 358h14c47 0 73 17 73 51c0 33 -21 50 -54 50h-33v-101z" />
    <glyph glyph-name="degree" unicode="&#xb0;" horiz-adv-x="408" 
d="M40 523c0 89 69 161 164 161s164 -72 164 -161s-69 -161 -164 -161s-164 72 -164 161zM204 400c60 0 90 55 90 123c0 67 -33 123 -90 123s-90 -56 -90 -123c0 -68 30 -123 90 -123z" />
    <glyph glyph-name="ae" unicode="&#xe6;" horiz-adv-x="776" 
d="M248 273l85 6v88c0 72 -27 103 -90 103c-54 0 -85 -18 -85 -49c0 -18 12 -32 33 -40c0 -33 -22 -51 -62 -51c-37 0 -62 25 -62 62c0 74 68 121 176 121c72 0 126 -22 155 -61c36 39 87 61 154 61c147 0 187 -86 191 -223l-22 -29h-290v-16c0 -110 11 -207 129 -207
c68 0 105 34 126 59l34 -34c-30 -35 -78 -71 -164 -71c-94 0 -153 32 -185 90c-55 -65 -108 -90 -182 -90c-85 0 -135 46 -135 124c0 93 68 148 194 157zM333 99v136l-81 -7c-64 -6 -103 -45 -103 -103s23 -88 68 -88c39 0 76 18 116 62zM431 301c86 1 215 8 215 8
c0 107 -21 160 -98 160c-83 0 -115 -71 -117 -168z" />
    <glyph glyph-name="oe" unicode="&#x153;" horiz-adv-x="836" 
d="M491 261v-16c0 -110 11 -207 129 -207c68 0 105 34 126 59l34 -34c-30 -35 -78 -71 -164 -71c-87 0 -144 27 -179 75c-37 -49 -95 -75 -173 -75c-148 0 -223 92 -223 261s75 260 223 260c80 0 139 -27 176 -79c36 50 94 79 172 79c147 0 187 -86 191 -223l-22 -29h-290z
M264 42c90 0 128 62 128 214c0 149 -41 207 -128 207c-90 0 -127 -61 -127 -210s37 -211 127 -211zM491 301c86 1 215 8 215 8c0 107 -21 160 -98 160c-83 0 -115 -71 -117 -168z" />
    <glyph glyph-name="dollar" unicode="$" horiz-adv-x="531" 
d="M258 -49v72c-124 0 -198 51 -198 136c0 32 27 55 59 55c16 0 37 -8 47 -19c-5 -15 -7 -28 -7 -38c0 -48 40 -81 99 -83v220c-83 32 -177 65 -177 174c0 85 73 146 177 151v73l6 7c13 0 25 -2 37 -5v-76c90 -8 159 -55 159 -113c0 -40 -19 -66 -48 -66c-18 0 -36 6 -52 18
c7 11 11 24 11 39c0 37 -28 63 -70 71v-198c81 -31 170 -68 170 -173c0 -95 -65 -158 -170 -171v-72l-6 -7c-13 0 -25 2 -37 5zM258 386v182c-57 -5 -88 -38 -88 -95c0 -43 38 -66 88 -87zM301 276v-198c48 10 81 40 81 95c0 52 -35 81 -81 103z" />
    <glyph glyph-name="Euro" unicode="&#x20ac;" horiz-adv-x="604" 
d="M33 261l7 7h62c-1 16 -1 32 -1 50v17h-63c-3 12 -5 23 -5 36l7 7h63c16 177 105 269 269 269c75 0 185 -37 185 -133c0 -48 -28 -80 -59 -80c-28 0 -50 16 -55 40c11 19 15 36 15 51c0 45 -41 65 -90 65c-109 0 -156 -65 -165 -212h170c3 -12 5 -23 5 -36l-7 -7h-169v-17
c0 -18 0 -34 1 -50h140c3 -12 5 -23 5 -36l-7 -7h-135c14 -123 60 -175 162 -175c49 0 90 20 90 65c0 15 -4 32 -15 51c5 24 27 40 55 40c31 0 59 -32 59 -80c0 -96 -110 -134 -185 -134c-160 0 -244 74 -266 233h-68c-3 12 -5 23 -5 36z" />
    <glyph glyph-name="sterling" unicode="&#xa3;" horiz-adv-x="574" 
d="M66 334l7 7h80c-12 41 -22 80 -22 112c0 128 81 199 218 199c81 0 173 -40 173 -132c0 -46 -28 -76 -59 -76c-28 0 -52 15 -59 36c13 17 19 35 19 51c0 36 -30 64 -83 64c-80 0 -111 -54 -111 -134c0 -39 12 -80 24 -120h153c3 -12 5 -23 5 -36l-7 -7h-138
c8 -29 14 -57 14 -84c0 -35 -7 -71 -19 -103c44 -15 93 -29 158 -29c49 0 62 32 62 66c37 -1 60 -30 60 -67c0 -64 -53 -88 -117 -88c-74 0 -129 40 -184 73c-28 -44 -68 -74 -119 -74c-48 0 -91 24 -91 72c0 50 42 82 95 82c23 0 46 -5 69 -12c1 8 1 17 1 26
c0 38 -14 87 -30 138h-94c-3 12 -5 23 -5 36zM188 92c-20 8 -41 14 -63 14c-28 0 -46 -14 -46 -39s19 -33 41 -33c37 0 58 22 68 58z" />
    <glyph glyph-name="yen" unicode="&#xa5;" horiz-adv-x="628" 
d="M170 0l5 38c35 4 67 9 97 26v151h-181c-3 12 -5 23 -5 36l7 7h175l-37 68h-140c-3 12 -5 23 -5 36l7 7h114l-104 190c-20 28 -58 33 -88 36l5 38h271l-5 -38c-33 -4 -58 -8 -85 -24l129 -240l132 240c-27 14 -60 20 -93 24l5 38h239l-6 -38c-27 -1 -62 -2 -82 -32
l-104 -194h113c3 -12 5 -23 5 -36l-7 -7h-134l-36 -68h172c3 -12 5 -23 5 -36l-7 -7h-170v-151c30 -16 68 -22 103 -26l-5 -38h-290z" />
    <glyph glyph-name="cent" unicode="&#xa2;" horiz-adv-x="469" 
d="M232 -32v115c-135 12 -191 96 -191 235c0 136 66 222 191 237v110l6 7c13 0 25 -2 37 -5v-110c97 -1 163 -49 163 -112c0 -33 -26 -61 -57 -61c-27 0 -50 15 -56 37c9 13 13 26 13 37c0 34 -29 53 -63 55v-386c54 2 94 33 116 90l44 -14c-23 -70 -84 -118 -160 -121v-112
l-6 -7c-13 0 -25 2 -37 5zM232 130v379c-77 -18 -91 -95 -91 -191c0 -97 12 -172 91 -188z" />
    <glyph glyph-name="currency" unicode="&#xa4;" horiz-adv-x="567" 
d="M70 116l62 69c-28 34 -43 79 -43 134c0 56 17 103 47 137l-66 70l42 41l70 -75c29 15 63 23 102 23c38 0 73 -8 101 -23l70 75l42 -41l-66 -70c30 -33 47 -81 47 -137c0 -55 -16 -100 -44 -134l63 -69l-42 -41l-66 73c-29 -17 -64 -25 -105 -25c-42 0 -77 9 -107 25
l-65 -73zM284 167c85 0 124 60 124 152s-39 152 -124 152c-90 0 -125 -64 -125 -152c0 -92 39 -152 125 -152z" />
    <glyph glyph-name="section" unicode="&#xa7;" horiz-adv-x="505" 
d="M125 553c-14 -16 -23 -52 -23 -78c0 -156 255 -259 255 -456c14 16 23 52 23 78c0 187 -247 259 -255 456zM168 70c-9 -9 -24 -30 -24 -60c0 -45 34 -65 79 -65c51 0 76 28 76 79c0 95 -73 156 -141 240c-72 90 -114 140 -114 225c0 119 86 194 211 194
c108 0 170 -53 170 -130c0 -45 -21 -73 -57 -73c-34 0 -48 15 -59 31c9 9 24 30 24 60c0 45 -34 65 -78 65c-50 0 -75 -28 -75 -79c0 -103 77 -150 150 -242c50 -63 107 -118 107 -223c0 -119 -89 -194 -214 -194c-109 0 -175 51 -175 128c0 40 21 75 61 75
c34 0 48 -15 59 -31z" />
    <glyph glyph-name="paragraph" unicode="&#xb6;" horiz-adv-x="530" 
d="M265 -67v374c-125 12 -200 61 -200 183c0 117 64 186 229 186h209l-6 -40c-35 -4 -67 -10 -97 -28v-577c0 -164 -112 -187 -177 -187c-64 0 -119 21 -119 83c0 32 20 59 51 59c18 0 34 -7 42 -21c-15 -14 -19 -28 -19 -47c0 -28 20 -40 44 -40c30 0 43 25 43 55zM345 -19
v647l-39 3v-684c0 -21 -7 -48 -17 -58c34 10 56 36 56 92zM265 360v269c-68 -9 -103 -52 -103 -137c0 -76 35 -117 103 -132z" />
    <glyph glyph-name="caron" unicode="&#x2c7;" horiz-adv-x="373" 
d="M153 592l-100 115l24 26l109 -83l110 83l24 -26l-100 -115c-10 -12 -21 -17 -34 -17s-24 6 -33 17z" />
    <glyph glyph-name="macron" unicode="&#xaf;" horiz-adv-x="374" 
d="M37 615v57h300v-57h-300z" />
    <glyph glyph-name="Eth" unicode="&#xd0;" horiz-adv-x="713" 
d="M46 0l6 40c34 4 67 10 97 27v252h-106v51h106v238c-30 17 -68 24 -103 28l5 40h244c243 0 371 -100 371 -338c0 -241 -127 -338 -377 -338h-243zM244 53h63c161 0 252 67 252 285c0 215 -89 285 -249 285c-51 0 -52 -1 -66 -1v-252h129l7 -7c-4 -16 -9 -28 -18 -44h-118
v-266z" />
    <glyph glyph-name="eth" unicode="&#xf0;" horiz-adv-x="537" 
d="M123 559l-18 43l127 51c-30 18 -64 34 -102 49l19 46c58 -20 109 -42 151 -67l123 50l22 -51l-93 -35c92 -74 135 -177 135 -392c0 -169 -75 -260 -223 -260s-222 91 -222 249c0 176 84 271 237 271c32 0 59 -6 85 -16c-18 51 -45 89 -83 121zM380 439
c-22 13 -47 28 -104 28c-87 0 -139 -82 -139 -225c0 -135 37 -199 127 -199s128 61 128 210c0 100 -4 146 -12 186z" />
    <glyph glyph-name="Thorn" unicode="&#xde;" horiz-adv-x="610" 
d="M44 0l6 40c35 4 67 10 97 28v540c-30 17 -68 24 -103 28l5 40h296l-6 -40c-35 -4 -67 -10 -97 -28v-76h84c145 0 248 -47 248 -192c0 -150 -122 -192 -272 -192h-60v-80c30 -17 68 -24 103 -28l-5 -40h-296zM242 197h70c100 0 166 43 166 143s-57 143 -157 143
c-40 0 -71 -5 -79 -5v-281z" />
    <glyph glyph-name="thorn" unicode="&#xfe;" horiz-adv-x="558" 
d="M25 -228l4 39c32 5 49 11 71 27v760c0 47 -23 61 -75 63l3 32c48 8 99 24 143 37l21 -11v-276c29 46 73 69 133 69c127 0 192 -84 192 -249c0 -176 -84 -271 -237 -271c-33 0 -61 7 -88 17v-171c18 -13 44 -23 75 -29l-4 -37h-238zM192 262v-203c19 -11 44 -21 91 -21
c87 0 139 82 139 225c0 139 -34 203 -107 203c-80 0 -123 -68 -123 -204z" />
    <glyph glyph-name="Oslash" unicode="&#xd8;" 
d="M72 2l53 73c-53 58 -77 146 -77 263c0 223 91 343 296 343c78 0 139 -17 186 -51l48 66l8 1c11 -7 20 -17 28 -26l-52 -71c53 -58 78 -146 78 -262c0 -223 -91 -344 -296 -344c-78 0 -140 17 -186 51l-50 -68l-8 -1c-11 8 -20 17 -28 26zM509 527l-306 -420
c30 -40 75 -59 141 -59c143 0 191 89 191 290c0 80 -8 143 -26 189zM179 149l306 420c-30 39 -76 58 -141 58c-143 0 -190 -88 -190 -289c0 -81 7 -143 25 -189z" />
    <glyph glyph-name="oslash" unicode="&#xf8;" horiz-adv-x="528" 
d="M34 3l55 66c-32 44 -48 106 -48 184c0 169 75 260 223 260c64 0 114 -17 151 -50l48 58l8 1c9 -6 17 -15 23 -22l-54 -65c31 -44 47 -105 47 -182c0 -169 -75 -261 -223 -261c-64 0 -114 17 -151 50l-49 -60l-7 -1c-9 7 -17 15 -23 22zM148 140l219 265
c-21 40 -55 58 -103 58c-90 0 -127 -61 -127 -210c0 -46 3 -83 11 -113zM381 364l-219 -264c20 -40 53 -58 102 -58c90 0 128 62 128 211c0 45 -3 82 -11 111z" />
    <glyph glyph-name="Lslash" unicode="&#x141;" horiz-adv-x="566" 
d="M43 0l6 40c35 4 67 10 97 28v202l-97 -46l-5 44l102 49v291c-30 17 -68 24 -103 28l5 40h296l-6 -40c-35 -4 -67 -10 -97 -28v-246l163 79l5 -44l-168 -81v-255h230c22 28 31 75 39 103l43 -6l-27 -158h-483z" />
    <glyph glyph-name="lslash" unicode="&#x142;" horiz-adv-x="306" 
d="M35 0l4 39c32 5 49 11 71 27v263l-99 -45l-5 44l104 47v215c0 54 -20 69 -75 71l3 32c48 8 99 24 143 37l21 -11v-301l94 43l5 -44l-99 -46v-305c18 -13 44 -23 75 -29l-4 -37h-238z" />
    <glyph glyph-name="dotlessj" unicode="&#x237;" horiz-adv-x="306" 
d="M125 79v297c0 54 -20 69 -75 71l3 32c48 8 99 24 143 37l21 -11v-540c0 -98 -17 -198 -123 -198c-62 0 -116 22 -116 83c0 32 20 59 51 59c18 0 34 -7 42 -21c-9 -8 -16 -21 -16 -35c0 -21 14 -39 40 -39c34 0 43 31 43 70c0 75 -13 99 -13 195z" />
    <glyph glyph-name="asciicircum" unicode="^" horiz-adv-x="527" 
d="M40 300l196 343h55l196 -343l-55 -27l-169 295l-168 -295z" />
    <glyph glyph-name="asciitilde" unicode="~" horiz-adv-x="566" 
d="M62 245c-10 5 -17 13 -22 22c23 30 70 86 143 86c61 0 164 -52 219 -52c42 0 73 20 101 43c10 -6 17 -13 23 -21c-19 -31 -65 -89 -131 -89c-72 0 -167 54 -233 54c-41 0 -72 -20 -100 -43z" />
    <glyph glyph-name="ij" unicode="&#x133;" horiz-adv-x="592" 
d="M112 166v210c0 54 -20 69 -75 71l3 32c48 8 99 24 143 37l21 -11v-351c0 -67 26 -113 93 -113c33 0 80 22 114 85v250c0 54 -20 69 -75 71l3 32c48 8 99 24 143 37l21 -11v-540c0 -98 -17 -198 -123 -198c-62 0 -116 22 -116 83c0 32 20 59 51 59c18 0 34 -7 42 -21
c-9 -8 -16 -21 -16 -35c0 -21 16 -39 45 -39c37 0 46 31 46 70c0 59 -12 112 -16 179c-38 -47 -84 -71 -131 -71c-115 0 -173 59 -173 174zM152 593c-38 0 -56 23 -56 63s18 62 56 62s57 -22 57 -62s-19 -63 -57 -63zM446 593c-38 0 -56 23 -56 63s18 62 56 62
s57 -22 57 -62s-19 -63 -57 -63z" />
    <glyph glyph-name="logicalnot" unicode="&#xac;" horiz-adv-x="546" 
d="M65 334v57h421v-57h-421zM65 153v181h65v-181h-65z" />
    <glyph glyph-name="IJ" unicode="&#x132;" horiz-adv-x="695" 
d="M50 0l6 40c35 4 67 10 97 28v540c-30 17 -68 24 -103 28l5 40h610l-6 -40c-35 -4 -67 -10 -97 -28v-539c0 -142 -98 -212 -238 -248l-12 33c86 38 155 94 155 199v555c-30 18 -75 27 -110 28c-35 -1 -79 -10 -109 -28v-540c30 -17 68 -24 103 -28l-5 -40h-296z" />
    <glyph glyph-name="commaaccent" unicode="&#xf6c3;" horiz-adv-x="109" 
d="M44 -233l-33 14c14 37 19 69 19 92c0 28 -8 44 -24 58c12 17 28 24 42 24c33 0 55 -20 55 -51c0 -39 -25 -93 -59 -137z" />
    <glyph glyph-name="Aacute" unicode="&#xc1;" horiz-adv-x="709" 
d="M0 0l6 40c29 4 57 10 82 28l222 609h82l240 -610c23 -17 52 -23 77 -27l-5 -40h-285l6 40c34 4 66 9 95 27l-61 160h-243l-57 -161c29 -16 66 -22 100 -26l-5 -40h-254zM236 283h202l-105 274zM311 705l-24 26l90 125c8 13 19 18 34 18c21 0 39 -18 39 -37
c0 -18 -11 -29 -27 -42z" />
    <glyph glyph-name="Agrave" unicode="&#xc0;" horiz-adv-x="709" 
d="M0 0l6 40c29 4 57 10 82 28l222 609h82l240 -610c23 -17 52 -23 77 -27l-5 -40h-285l6 40c34 4 66 9 95 27l-61 160h-243l-57 -161c29 -16 66 -22 100 -26l-5 -40h-254zM236 283h202l-105 274zM385 705l-112 90c-16 13 -27 24 -27 42c0 19 18 37 39 37c15 0 26 -5 34 -18
l90 -125z" />
    <glyph glyph-name="Adieresis" unicode="&#xc4;" horiz-adv-x="709" 
d="M0 0l6 40c29 4 57 10 82 28l222 609h82l240 -610c23 -17 52 -23 77 -27l-5 -40h-285l6 40c34 4 66 9 95 27l-61 160h-243l-57 -161c29 -16 66 -22 100 -26l-5 -40h-254zM236 283h202l-105 274zM259 736c-35 0 -51 21 -51 57s16 56 51 56c34 0 51 -20 51 -56
s-17 -57 -51 -57zM438 736c-34 0 -50 21 -50 57s16 56 50 56c35 0 52 -20 52 -56s-17 -57 -52 -57z" />
    <glyph glyph-name="Acircumflex" unicode="&#xc2;" horiz-adv-x="709" 
d="M0 0l6 40c29 4 57 10 82 28l222 609h82l240 -610c23 -17 52 -23 77 -27l-5 -40h-285l6 40c34 4 66 9 95 27l-61 160h-243l-57 -161c29 -16 66 -22 100 -26l-5 -40h-254zM236 283h202l-105 274zM240 715l-24 26l100 115c9 11 20 17 33 17s24 -5 34 -17l100 -115l-24 -26
l-110 83z" />
    <glyph glyph-name="Aring" unicode="&#xc5;" horiz-adv-x="709" 
d="M0 0l6 40c29 4 57 10 82 28l222 609h82l240 -610c23 -17 52 -23 77 -27l-5 -40h-285l6 40c34 4 66 9 95 27l-61 160h-243l-57 -161c29 -16 66 -22 100 -26l-5 -40h-254zM236 283h202l-105 274zM257 790c0 51 36 89 91 89c56 0 94 -38 94 -89s-38 -89 -94 -89
c-55 0 -91 38 -91 89zM348 743c27 0 49 21 49 47s-22 48 -49 48s-46 -22 -46 -48s19 -47 46 -47z" />
    <glyph glyph-name="Atilde" unicode="&#xc3;" horiz-adv-x="709" 
d="M0 0l6 40c29 4 57 10 82 28l222 609h82l240 -610c23 -17 52 -23 77 -27l-5 -40h-285l6 40c34 4 66 9 95 27l-61 160h-243l-57 -161c29 -16 66 -22 100 -26l-5 -40h-254zM236 283h202l-105 274zM217 738c-15 4 -25 12 -35 21c12 30 49 89 108 89c47 0 81 -43 123 -43
c30 0 51 20 71 43c15 -6 25 -13 35 -21c-13 -31 -51 -89 -105 -89c-53 0 -83 43 -127 43c-29 0 -50 -20 -70 -43z" />
    <glyph glyph-name="Ccedilla" unicode="&#xc7;" horiz-adv-x="605" 
d="M280 -82l-20 22l34 57c-171 19 -246 127 -246 339c0 227 102 346 306 346c98 0 216 -39 216 -140c0 -50 -30 -84 -62 -84c-30 0 -55 17 -62 42c14 20 20 38 20 54c0 50 -47 73 -111 73c-143 0 -201 -87 -201 -291s55 -288 200 -288c29 0 137 7 179 125l50 -18
c-56 -154 -200 -162 -229 -162c-9 0 -18 0 -27 1l-15 -44c49 -9 82 -30 82 -85c0 -47 -43 -85 -103 -85c-70 0 -98 39 -98 71c0 22 13 42 36 42c6 0 12 -1 19 -4c-2 -8 -4 -15 -4 -22c0 -31 22 -51 48 -51c32 0 47 18 47 54c0 32 -28 44 -59 48z" />
    <glyph glyph-name="Eacute" unicode="&#xc9;" horiz-adv-x="633" 
d="M299 705l-24 26l90 125c8 13 19 18 34 18c21 0 39 -18 39 -37c0 -18 -11 -29 -27 -42zM43 0l6 40c35 4 80 15 97 28v540c-30 17 -68 24 -103 28l5 40h510l9 -162c-9 -3 -19 -5 -30 -5c-5 0 -11 0 -16 1c-7 33 -22 75 -50 109h-230v-249l155 11c37 3 54 47 60 71h34v-210
h-34c-5 25 -15 75 -61 78l-154 11v-270h256c29 38 44 86 51 121c7 1 14 2 21 2s14 -1 23 -2l-10 -182h-539z" />
    <glyph glyph-name="Egrave" unicode="&#xc8;" horiz-adv-x="633" 
d="M43 0l6 40c35 4 80 15 97 28v540c-30 17 -68 24 -103 28l5 40h510l9 -162c-9 -3 -19 -5 -30 -5c-5 0 -11 0 -16 1c-7 33 -22 75 -50 109h-230v-249l155 11c37 3 54 47 60 71h34v-210h-34c-5 25 -15 75 -61 78l-154 11v-270h256c29 38 44 86 51 121c7 1 14 2 21 2
s14 -1 23 -2l-10 -182h-539zM373 705l-112 90c-16 13 -27 24 -27 42c0 19 18 37 39 37c15 0 26 -5 34 -18l90 -125z" />
    <glyph glyph-name="Edieresis" unicode="&#xcb;" horiz-adv-x="633" 
d="M247 736c-35 0 -51 21 -51 57s16 56 51 56c34 0 51 -20 51 -56s-17 -57 -51 -57zM426 736c-34 0 -50 21 -50 57s16 56 50 56c35 0 52 -20 52 -56s-17 -57 -52 -57zM43 0l6 40c35 4 80 15 97 28v540c-30 17 -68 24 -103 28l5 40h510l9 -162c-9 -3 -19 -5 -30 -5
c-5 0 -11 0 -16 1c-7 33 -22 75 -50 109h-230v-249l155 11c37 3 54 47 60 71h34v-210h-34c-5 25 -15 75 -61 78l-154 11v-270h256c29 38 44 86 51 121c7 1 14 2 21 2s14 -1 23 -2l-10 -182h-539z" />
    <glyph glyph-name="Ecircumflex" unicode="&#xca;" horiz-adv-x="633" 
d="M228 715l-24 26l100 115c9 11 20 17 33 17s24 -5 34 -17l100 -115l-24 -26l-110 83zM43 0l6 40c35 4 80 15 97 28v540c-30 17 -68 24 -103 28l5 40h510l9 -162c-9 -3 -19 -5 -30 -5c-5 0 -11 0 -16 1c-7 33 -22 75 -50 109h-230v-249l155 11c37 3 54 47 60 71h34v-210
h-34c-5 25 -15 75 -61 78l-154 11v-270h256c29 38 44 86 51 121c7 1 14 2 21 2s14 -1 23 -2l-10 -182h-539z" />
    <glyph glyph-name="Iacute" unicode="&#xcd;" horiz-adv-x="401" 
d="M50 0l6 40c35 4 67 10 97 28v540c-30 17 -68 24 -103 28l5 40h296l-6 -40c-35 -4 -67 -10 -97 -28v-540c30 -17 68 -24 103 -28l-5 -40h-296zM157 705l-24 26l90 125c8 13 19 18 34 18c21 0 39 -18 39 -37c0 -18 -11 -29 -27 -42z" />
    <glyph glyph-name="Igrave" unicode="&#xcc;" horiz-adv-x="401" 
d="M50 0l6 40c35 4 67 10 97 28v540c-30 17 -68 24 -103 28l5 40h296l-6 -40c-35 -4 -67 -10 -97 -28v-540c30 -17 68 -24 103 -28l-5 -40h-296zM231 705l-112 90c-16 13 -27 24 -27 42c0 19 18 37 39 37c15 0 26 -5 34 -18l90 -125z" />
    <glyph glyph-name="Idieresis" unicode="&#xcf;" horiz-adv-x="401" 
d="M105 736c-35 0 -51 21 -51 57s16 56 51 56c34 0 51 -20 51 -56s-17 -57 -51 -57zM284 736c-34 0 -50 21 -50 57s16 56 50 56c35 0 52 -20 52 -56s-17 -57 -52 -57zM50 0l6 40c35 4 67 10 97 28v540c-30 17 -68 24 -103 28l5 40h296l-6 -40c-35 -4 -67 -10 -97 -28v-540
c30 -17 68 -24 103 -28l-5 -40h-296z" />
    <glyph glyph-name="Icircumflex" unicode="&#xce;" horiz-adv-x="401" 
d="M86 715l-24 26l100 115c9 11 20 17 33 17s24 -5 34 -17l100 -115l-24 -26l-110 83zM50 0l6 40c35 4 67 10 97 28v540c-30 17 -68 24 -103 28l5 40h296l-6 -40c-35 -4 -67 -10 -97 -28v-540c30 -17 68 -24 103 -28l-5 -40h-296z" />
    <glyph glyph-name="Itilde" unicode="&#x128;" horiz-adv-x="401" 
d="M50 0l6 40c35 4 67 10 97 28v540c-30 17 -68 24 -103 28l5 40h296l-6 -40c-35 -4 -67 -10 -97 -28v-540c30 -17 68 -24 103 -28l-5 -40h-296zM63 738c-15 4 -25 12 -35 21c12 30 49 89 108 89c47 0 81 -43 123 -43c30 0 51 20 71 43c15 -6 25 -13 35 -21
c-13 -31 -51 -89 -105 -89c-53 0 -83 43 -127 43c-29 0 -50 -20 -70 -43z" />
    <glyph glyph-name="Jcircumflex" unicode="&#x134;" horiz-adv-x="374" 
d="M33 -179l-12 33c63 28 125 74 125 179v575c-30 17 -68 24 -103 28l5 40h296l-6 -40c-35 -4 -67 -10 -97 -28v-559c0 -132 -83 -195 -208 -228zM88 715l-24 26l100 115c9 11 20 17 33 17s24 -5 34 -17l100 -115l-24 -26l-110 83z" />
    <glyph glyph-name="Nacute" unicode="&#x143;" horiz-adv-x="773" 
d="M38 0l6 40c35 4 67 10 97 28v540c-30 17 -68 24 -103 28l5 40h178l359 -499v431c-30 17 -68 24 -103 28l5 40h270l-6 -40c-35 -4 -67 -10 -97 -28v-608h-65l-374 520v-452c30 -17 68 -24 103 -28l-5 -40h-270zM352 705l-24 26l90 125c8 13 19 18 34 18
c21 0 39 -18 39 -37c0 -18 -11 -29 -27 -42z" />
    <glyph glyph-name="Ntilde" unicode="&#xd1;" horiz-adv-x="773" 
d="M38 0l6 40c35 4 67 10 97 28v540c-30 17 -68 24 -103 28l5 40h178l359 -499v431c-30 17 -68 24 -103 28l5 40h270l-6 -40c-35 -4 -67 -10 -97 -28v-608h-65l-374 520v-452c30 -17 68 -24 103 -28l-5 -40h-270zM258 738c-15 4 -25 12 -35 21c12 30 49 89 108 89
c47 0 81 -43 123 -43c30 0 51 20 71 43c15 -6 25 -13 35 -21c-13 -31 -51 -89 -105 -89c-53 0 -83 43 -127 43c-29 0 -50 -20 -70 -43z" />
    <glyph glyph-name="Oacute" unicode="&#xd3;" 
d="M344 48c143 0 191 89 191 290s-48 289 -191 289s-190 -88 -190 -289s47 -290 190 -290zM344 -6c-205 0 -296 121 -296 344s91 343 296 343s296 -120 296 -343s-91 -344 -296 -344zM306 705l-24 26l90 125c8 13 19 18 34 18c21 0 39 -18 39 -37c0 -18 -11 -29 -27 -42z
" />
    <glyph glyph-name="Ograve" unicode="&#xd2;" 
d="M344 48c143 0 191 89 191 290s-48 289 -191 289s-190 -88 -190 -289s47 -290 190 -290zM344 -6c-205 0 -296 121 -296 344s91 343 296 343s296 -120 296 -343s-91 -344 -296 -344zM380 705l-112 90c-16 13 -27 24 -27 42c0 19 18 37 39 37c15 0 26 -5 34 -18l90 -125z
" />
    <glyph glyph-name="Odieresis" unicode="&#xd6;" 
d="M344 48c143 0 191 89 191 290s-48 289 -191 289s-190 -88 -190 -289s47 -290 190 -290zM344 -6c-205 0 -296 121 -296 344s91 343 296 343s296 -120 296 -343s-91 -344 -296 -344zM254 736c-35 0 -51 21 -51 57s16 56 51 56c34 0 51 -20 51 -56s-17 -57 -51 -57zM433 736
c-34 0 -50 21 -50 57s16 56 50 56c35 0 52 -20 52 -56s-17 -57 -52 -57z" />
    <glyph glyph-name="Ocircumflex" unicode="&#xd4;" 
d="M344 48c143 0 191 89 191 290s-48 289 -191 289s-190 -88 -190 -289s47 -290 190 -290zM344 -6c-205 0 -296 121 -296 344s91 343 296 343s296 -120 296 -343s-91 -344 -296 -344zM235 715l-24 26l100 115c9 11 20 17 33 17s24 -5 34 -17l100 -115l-24 -26l-110 83z" />
    <glyph glyph-name="Otilde" unicode="&#xd5;" 
d="M344 48c143 0 191 89 191 290s-48 289 -191 289s-190 -88 -190 -289s47 -290 190 -290zM344 -6c-205 0 -296 121 -296 344s91 343 296 343s296 -120 296 -343s-91 -344 -296 -344zM212 738c-15 4 -25 12 -35 21c12 30 49 89 108 89c47 0 81 -43 123 -43c30 0 51 20 71 43
c15 -6 25 -13 35 -21c-13 -31 -51 -89 -105 -89c-53 0 -83 43 -127 43c-29 0 -50 -20 -70 -43z" />
    <glyph glyph-name="Racute" unicode="&#x154;" horiz-adv-x="683" 
d="M48 0l6 40c44 5 72 13 97 28v540c-24 14 -57 23 -103 28l5 40h289c163 0 246 -60 246 -179c0 -90 -46 -145 -146 -169c26 -16 43 -42 63 -83l83 -177c20 -14 49 -22 89 -27l-6 -41h-162l-92 225c-34 82 -44 89 -134 89h-37v-246c20 -13 46 -20 103 -28l-5 -40h-296z
M246 363h49c133 0 196 44 196 136c0 87 -51 132 -149 132c-33 0 -46 -1 -96 -9v-259zM304 705l-24 26l90 125c8 13 19 18 34 18c21 0 39 -18 39 -37c0 -18 -11 -29 -27 -42z" />
    <glyph glyph-name="Rcaron" unicode="&#x158;" horiz-adv-x="683" 
d="M48 0l6 40c44 5 72 13 97 28v540c-24 14 -57 23 -103 28l5 40h289c163 0 246 -60 246 -179c0 -90 -46 -145 -146 -169c26 -16 43 -42 63 -83l83 -177c20 -14 49 -22 89 -27l-6 -41h-162l-92 225c-34 82 -44 89 -134 89h-37v-246c20 -13 46 -20 103 -28l-5 -40h-296z
M246 363h49c133 0 196 44 196 136c0 87 -51 132 -149 132c-33 0 -46 -1 -96 -9v-259zM309 732l-100 115l24 26l109 -83l110 83l24 -26l-100 -115c-10 -12 -21 -17 -34 -17s-24 6 -33 17z" />
    <glyph glyph-name="Uacute" unicode="&#xda;" horiz-adv-x="772" 
d="M137 223v385c-24 14 -57 23 -103 28l5 40h298l-6 -40c-45 -6 -72 -14 -97 -28v-385c0 -126 54 -175 169 -175c113 0 179 64 179 181v379c-24 14 -57 23 -103 28l5 40h270l-6 -40c-45 -6 -72 -14 -97 -28v-379c0 -152 -89 -237 -248 -237c-188 0 -266 71 -266 231z
M371 705l-24 26l90 125c8 13 19 18 34 18c21 0 39 -18 39 -37c0 -18 -11 -29 -27 -42z" />
    <glyph glyph-name="Ugrave" unicode="&#xd9;" horiz-adv-x="772" 
d="M137 223v385c-24 14 -57 23 -103 28l5 40h298l-6 -40c-45 -6 -72 -14 -97 -28v-385c0 -126 54 -175 169 -175c113 0 179 64 179 181v379c-24 14 -57 23 -103 28l5 40h270l-6 -40c-45 -6 -72 -14 -97 -28v-379c0 -152 -89 -237 -248 -237c-188 0 -266 71 -266 231z
M445 705l-112 90c-16 13 -27 24 -27 42c0 19 18 37 39 37c15 0 26 -5 34 -18l90 -125z" />
    <glyph glyph-name="Udieresis" unicode="&#xdc;" horiz-adv-x="772" 
d="M137 223v385c-24 14 -57 23 -103 28l5 40h298l-6 -40c-45 -6 -72 -14 -97 -28v-385c0 -126 54 -175 169 -175c113 0 179 64 179 181v379c-24 14 -57 23 -103 28l5 40h270l-6 -40c-45 -6 -72 -14 -97 -28v-379c0 -152 -89 -237 -248 -237c-188 0 -266 71 -266 231z
M319 736c-35 0 -51 21 -51 57s16 56 51 56c34 0 51 -20 51 -56s-17 -57 -51 -57zM498 736c-34 0 -50 21 -50 57s16 56 50 56c35 0 52 -20 52 -56s-17 -57 -52 -57z" />
    <glyph glyph-name="Ucircumflex" unicode="&#xdb;" horiz-adv-x="772" 
d="M137 223v385c-24 14 -57 23 -103 28l5 40h298l-6 -40c-45 -6 -72 -14 -97 -28v-385c0 -126 54 -175 169 -175c113 0 179 64 179 181v379c-24 14 -57 23 -103 28l5 40h270l-6 -40c-45 -6 -72 -14 -97 -28v-379c0 -152 -89 -237 -248 -237c-188 0 -266 71 -266 231z
M300 715l-24 26l100 115c9 11 20 17 33 17s24 -5 34 -17l100 -115l-24 -26l-110 83z" />
    <glyph glyph-name="Yacute" unicode="&#xdd;" horiz-adv-x="646" 
d="M171 0l6 40c37 4 70 10 102 28v196l-190 336c-21 28 -61 33 -91 36l5 40h291l-6 -40c-34 -4 -65 -8 -94 -24l146 -265l148 264c-28 14 -68 21 -102 25l5 40h257l-6 -40c-27 -1 -64 -2 -86 -32l-182 -333v-203c31 -17 71 -24 108 -28l-5 -40h-306zM305 705l-24 26l90 125
c8 13 19 18 34 18c21 0 39 -18 39 -37c0 -18 -11 -29 -27 -42z" />
    <glyph glyph-name="aacute" unicode="&#xe1;" horiz-adv-x="515" 
d="M347 0l-11 48c-45 -43 -92 -56 -147 -56c-85 0 -135 46 -135 124c0 93 68 148 194 157l85 6v88c0 72 -27 103 -90 103c-54 0 -85 -18 -85 -49c0 -18 12 -32 33 -40c0 -33 -22 -51 -62 -51c-37 0 -62 25 -62 62c0 74 68 121 176 121c114 0 182 -54 182 -146v-301
c13 -10 44 -23 75 -29l-4 -37h-149zM333 99v136l-81 -7c-64 -6 -103 -45 -103 -103s23 -88 68 -88c39 0 72 18 116 62zM214 565l-24 26l90 125c8 13 19 18 34 18c21 0 39 -18 39 -37c0 -18 -11 -29 -27 -42z" />
    <glyph glyph-name="agrave" unicode="&#xe0;" horiz-adv-x="515" 
d="M347 0l-11 48c-45 -43 -92 -56 -147 -56c-85 0 -135 46 -135 124c0 93 68 148 194 157l85 6v88c0 72 -27 103 -90 103c-54 0 -85 -18 -85 -49c0 -18 12 -32 33 -40c0 -33 -22 -51 -62 -51c-37 0 -62 25 -62 62c0 74 68 121 176 121c114 0 182 -54 182 -146v-301
c13 -10 44 -23 75 -29l-4 -37h-149zM333 99v136l-81 -7c-64 -6 -103 -45 -103 -103s23 -88 68 -88c39 0 72 18 116 62zM288 565l-112 90c-16 13 -27 24 -27 42c0 19 18 37 39 37c15 0 26 -5 34 -18l90 -125z" />
    <glyph glyph-name="adieresis" unicode="&#xe4;" horiz-adv-x="515" 
d="M347 0l-11 48c-45 -43 -92 -56 -147 -56c-85 0 -135 46 -135 124c0 93 68 148 194 157l85 6v88c0 72 -27 103 -90 103c-54 0 -85 -18 -85 -49c0 -18 12 -32 33 -40c0 -33 -22 -51 -62 -51c-37 0 -62 25 -62 62c0 74 68 121 176 121c114 0 182 -54 182 -146v-301
c13 -10 44 -23 75 -29l-4 -37h-149zM333 99v136l-81 -7c-64 -6 -103 -45 -103 -103s23 -88 68 -88c39 0 72 18 116 62zM162 596c-35 0 -51 21 -51 57s16 56 51 56c34 0 51 -20 51 -56s-17 -57 -51 -57zM341 596c-34 0 -50 21 -50 57s16 56 50 56c35 0 52 -20 52 -56
s-17 -57 -52 -57z" />
    <glyph glyph-name="acircumflex" unicode="&#xe2;" horiz-adv-x="515" 
d="M347 0l-11 48c-45 -43 -92 -56 -147 -56c-85 0 -135 46 -135 124c0 93 68 148 194 157l85 6v88c0 72 -27 103 -90 103c-54 0 -85 -18 -85 -49c0 -18 12 -32 33 -40c0 -33 -22 -51 -62 -51c-37 0 -62 25 -62 62c0 74 68 121 176 121c114 0 182 -54 182 -146v-301
c13 -10 44 -23 75 -29l-4 -37h-149zM333 99v136l-81 -7c-64 -6 -103 -45 -103 -103s23 -88 68 -88c39 0 72 18 116 62zM143 575l-24 26l100 115c9 11 20 17 33 17s24 -5 34 -17l100 -115l-24 -26l-110 83z" />
    <glyph glyph-name="aring" unicode="&#xe5;" horiz-adv-x="515" 
d="M347 0l-11 48c-45 -43 -92 -56 -147 -56c-85 0 -135 46 -135 124c0 93 68 148 194 157l85 6v88c0 72 -27 103 -90 103c-54 0 -85 -18 -85 -49c0 -18 12 -32 33 -40c0 -33 -22 -51 -62 -51c-37 0 -62 25 -62 62c0 74 68 121 176 121c114 0 182 -54 182 -146v-301
c13 -10 44 -23 75 -29l-4 -37h-149zM333 99v136l-81 -7c-64 -6 -103 -45 -103 -103s23 -88 68 -88c39 0 72 18 116 62zM160 650c0 51 36 89 91 89c56 0 94 -38 94 -89s-38 -89 -94 -89c-55 0 -91 38 -91 89zM251 603c27 0 49 21 49 47s-22 48 -49 48s-46 -22 -46 -48
s19 -47 46 -47z" />
    <glyph glyph-name="atilde" unicode="&#xe3;" horiz-adv-x="515" 
d="M347 0l-11 48c-45 -43 -92 -56 -147 -56c-85 0 -135 46 -135 124c0 93 68 148 194 157l85 6v88c0 72 -27 103 -90 103c-54 0 -85 -18 -85 -49c0 -18 12 -32 33 -40c0 -33 -22 -51 -62 -51c-37 0 -62 25 -62 62c0 74 68 121 176 121c114 0 182 -54 182 -146v-301
c13 -10 44 -23 75 -29l-4 -37h-149zM333 99v136l-81 -7c-64 -6 -103 -45 -103 -103s23 -88 68 -88c39 0 72 18 116 62zM120 598c-15 4 -25 12 -35 21c12 30 49 89 108 89c47 0 81 -43 123 -43c30 0 51 20 71 43c15 -6 25 -13 35 -21c-13 -31 -51 -89 -105 -89
c-53 0 -83 43 -127 43c-29 0 -50 -20 -70 -43z" />
    <glyph glyph-name="ccedilla" unicode="&#xe7;" horiz-adv-x="469" 
d="M225 -82l-20 22l34 56c-137 9 -198 88 -198 255c0 171 78 259 231 259c99 0 166 -46 166 -114c0 -34 -26 -64 -57 -64c-27 0 -50 16 -56 39c9 14 14 27 14 39c0 36 -27 61 -67 61c-91 0 -131 -67 -131 -220c0 -152 36 -213 126 -213c59 0 101 32 124 95l44 -15
c-24 -74 -85 -120 -162 -123l-16 -45c49 -9 82 -30 82 -85c0 -47 -43 -85 -103 -85c-70 0 -98 39 -98 71c0 22 13 42 36 42c6 0 12 -1 19 -4c-2 -8 -4 -15 -4 -22c0 -31 22 -51 48 -51c32 0 47 18 47 54c0 32 -28 44 -59 48z" />
    <glyph glyph-name="eacute" unicode="&#xe9;" horiz-adv-x="486" 
d="M141 261v-16c0 -110 11 -207 129 -207c68 0 105 34 126 59l34 -34c-30 -35 -78 -71 -164 -71c-169 0 -224 101 -224 264c0 156 73 257 220 257s187 -86 191 -223l-22 -29h-290zM141 301c86 1 215 8 215 8c0 107 -21 160 -98 160c-83 0 -115 -71 -117 -168zM224 565
l-24 26l90 125c8 13 19 18 34 18c21 0 39 -18 39 -37c0 -18 -11 -29 -27 -42z" />
    <glyph glyph-name="egrave" unicode="&#xe8;" horiz-adv-x="486" 
d="M141 261v-16c0 -110 11 -207 129 -207c68 0 105 34 126 59l34 -34c-30 -35 -78 -71 -164 -71c-169 0 -224 101 -224 264c0 156 73 257 220 257s187 -86 191 -223l-22 -29h-290zM141 301c86 1 215 8 215 8c0 107 -21 160 -98 160c-83 0 -115 -71 -117 -168zM298 565
l-112 90c-16 13 -27 24 -27 42c0 19 18 37 39 37c15 0 26 -5 34 -18l90 -125z" />
    <glyph glyph-name="edieresis" unicode="&#xeb;" horiz-adv-x="486" 
d="M141 261v-16c0 -110 11 -207 129 -207c68 0 105 34 126 59l34 -34c-30 -35 -78 -71 -164 -71c-169 0 -224 101 -224 264c0 156 73 257 220 257s187 -86 191 -223l-22 -29h-290zM141 301c86 1 215 8 215 8c0 107 -21 160 -98 160c-83 0 -115 -71 -117 -168zM172 596
c-35 0 -51 21 -51 57s16 56 51 56c34 0 51 -20 51 -56s-17 -57 -51 -57zM351 596c-34 0 -50 21 -50 57s16 56 50 56c35 0 52 -20 52 -56s-17 -57 -52 -57z" />
    <glyph glyph-name="ecircumflex" unicode="&#xea;" horiz-adv-x="486" 
d="M141 261v-16c0 -110 11 -207 129 -207c68 0 105 34 126 59l34 -34c-30 -35 -78 -71 -164 -71c-169 0 -224 101 -224 264c0 156 73 257 220 257s187 -86 191 -223l-22 -29h-290zM141 301c86 1 215 8 215 8c0 107 -21 160 -98 160c-83 0 -115 -71 -117 -168zM153 575
l-24 26l100 115c9 11 20 17 33 17s24 -5 34 -17l100 -115l-24 -26l-110 83z" />
    <glyph glyph-name="itilde" unicode="&#x129;" horiz-adv-x="299" 
d="M37 0l4 39c32 5 49 11 71 27v310c0 54 -20 69 -75 71l3 32c48 8 99 24 143 37l21 -11v-439c18 -13 44 -23 75 -29l-4 -37h-238zM21 598c-15 4 -25 12 -35 21c11 30 46 89 101 89c44 0 75 -43 115 -43c28 0 47 20 66 43c15 -6 25 -13 35 -21c-12 -31 -48 -89 -98 -89
s-78 43 -119 43c-27 0 -46 -20 -65 -43z" />
    <glyph glyph-name="iacute" unicode="&#xed;" horiz-adv-x="299" 
d="M37 0l4 39c32 5 49 11 71 27v310c0 54 -20 69 -75 71l3 32c48 8 99 24 143 37l21 -11v-439c18 -13 44 -23 75 -29l-4 -37h-238zM105 565l-24 26l90 125c8 13 19 18 34 18c21 0 39 -18 39 -37c0 -18 -11 -29 -27 -42z" />
    <glyph glyph-name="igrave" unicode="&#xec;" horiz-adv-x="299" 
d="M37 0l4 39c32 5 49 11 71 27v310c0 54 -20 69 -75 71l3 32c48 8 99 24 143 37l21 -11v-439c18 -13 44 -23 75 -29l-4 -37h-238zM179 565l-112 90c-16 13 -27 24 -27 42c0 19 18 37 39 37c15 0 26 -5 34 -18l90 -125z" />
    <glyph glyph-name="idieresis" unicode="&#xef;" horiz-adv-x="299" 
d="M37 0l4 39c32 5 49 11 71 27v310c0 54 -20 69 -75 71l3 32c48 8 99 24 143 37l21 -11v-439c18 -13 44 -23 75 -29l-4 -37h-238zM53 596c-35 0 -51 21 -51 57s16 56 51 56c34 0 51 -20 51 -56s-17 -57 -51 -57zM232 596c-34 0 -50 21 -50 57s16 56 50 56
c35 0 52 -20 52 -56s-17 -57 -52 -57z" />
    <glyph glyph-name="icircumflex" unicode="&#xee;" horiz-adv-x="299" 
d="M37 0l4 39c32 5 49 11 71 27v310c0 54 -20 69 -75 71l3 32c48 8 99 24 143 37l21 -11v-439c18 -13 44 -23 75 -29l-4 -37h-238zM34 575l-24 26l100 115c9 11 20 17 33 17s24 -5 34 -17l100 -115l-24 -26l-110 83z" />
    <glyph glyph-name="jcircumflex" unicode="&#x135;" horiz-adv-x="306" 
d="M125 79v297c0 54 -20 69 -75 71l3 32c48 8 99 24 143 37l21 -11v-540c0 -98 -17 -198 -123 -198c-62 0 -116 22 -116 83c0 32 20 59 51 59c18 0 34 -7 42 -21c-9 -8 -16 -21 -16 -35c0 -21 14 -39 40 -39c34 0 43 31 43 70c0 75 -13 99 -13 195zM44 575l-24 26l100 115
c9 11 20 17 33 17s24 -5 34 -17l100 -115l-24 -26l-110 83z" />
    <glyph glyph-name="kcommaaccent" unicode="&#x137;" horiz-adv-x="549" 
d="M35 0l4 39c32 5 49 11 71 27v524c0 54 -20 69 -75 71l3 32c48 8 99 24 143 37l21 -11v-421l139 148c24 25 33 60 33 60h144l3 -32c-43 -2 -83 -14 -115 -47l-96 -99l157 -260c23 -14 58 -25 97 -31l-4 -37h-154l-157 265l-47 -48v-151c18 -13 44 -23 75 -29l-4 -37h-238z
M303 -233l-33 14c14 37 19 69 19 92c0 28 -8 44 -24 58c12 17 28 24 42 24c33 0 55 -20 55 -51c0 -39 -25 -93 -59 -137z" />
    <glyph glyph-name="ldot" unicode="&#x140;" horiz-adv-x="369" 
d="M33 0l4 39c32 5 49 11 71 27v524c0 54 -20 69 -75 71l3 32c48 8 99 24 143 37l21 -11v-653c18 -13 44 -23 75 -29l-4 -37h-238zM326 506c-33 0 -52 25 -52 55s20 54 52 54s53 -24 53 -54s-20 -55 -53 -55z" />
    <glyph glyph-name="nacute" unicode="&#x144;" horiz-adv-x="594" 
d="M33 0l4 39c32 5 49 11 71 27v308c0 54 -20 69 -75 71l3 32c46 8 91 24 132 36l19 -10l10 -67c34 47 87 77 142 77c104 0 166 -55 166 -149v-298c13 -10 44 -23 75 -29l-4 -37h-237l3 37c27 4 51 14 71 29v288c0 73 -31 107 -92 107c-49 0 -99 -37 -121 -90v-305
c18 -13 44 -23 75 -29l-4 -37h-238zM268 565l-24 26l90 125c8 13 19 18 34 18c21 0 39 -18 39 -37c0 -18 -11 -29 -27 -42z" />
    <glyph glyph-name="ntilde" unicode="&#xf1;" horiz-adv-x="594" 
d="M33 0l4 39c32 5 49 11 71 27v308c0 54 -20 69 -75 71l3 32c46 8 91 24 132 36l19 -10l10 -67c34 47 87 77 142 77c104 0 166 -55 166 -149v-298c13 -10 44 -23 75 -29l-4 -37h-237l3 37c27 4 51 14 71 29v288c0 73 -31 107 -92 107c-49 0 -99 -37 -121 -90v-305
c18 -13 44 -23 75 -29l-4 -37h-238zM174 598c-15 4 -25 12 -35 21c12 30 49 89 108 89c47 0 81 -43 123 -43c30 0 51 20 71 43c15 -6 25 -13 35 -21c-13 -31 -51 -89 -105 -89c-53 0 -83 43 -127 43c-29 0 -50 -20 -70 -43z" />
    <glyph glyph-name="ograve" unicode="&#xf2;" horiz-adv-x="528" 
d="M264 42c90 0 128 62 128 211s-38 210 -128 210s-127 -61 -127 -210s37 -211 127 -211zM264 -8c-148 0 -223 92 -223 261s75 260 223 260s223 -91 223 -260s-75 -261 -223 -261zM300 565l-112 90c-16 13 -27 24 -27 42c0 19 18 37 39 37c15 0 26 -5 34 -18l90 -125z" />
    <glyph glyph-name="oacute" unicode="&#xf3;" horiz-adv-x="528" 
d="M264 42c90 0 128 62 128 211s-38 210 -128 210s-127 -61 -127 -210s37 -211 127 -211zM264 -8c-148 0 -223 92 -223 261s75 260 223 260s223 -91 223 -260s-75 -261 -223 -261zM226 565l-24 26l90 125c8 13 19 18 34 18c21 0 39 -18 39 -37c0 -18 -11 -29 -27 -42z" />
    <glyph glyph-name="ocircumflex" unicode="&#xf4;" horiz-adv-x="528" 
d="M264 42c90 0 128 62 128 211s-38 210 -128 210s-127 -61 -127 -210s37 -211 127 -211zM264 -8c-148 0 -223 92 -223 261s75 260 223 260s223 -91 223 -260s-75 -261 -223 -261zM155 575l-24 26l100 115c9 11 20 17 33 17s24 -5 34 -17l100 -115l-24 -26l-110 83z" />
    <glyph glyph-name="otilde" unicode="&#xf5;" horiz-adv-x="528" 
d="M264 42c90 0 128 62 128 211s-38 210 -128 210s-127 -61 -127 -210s37 -211 127 -211zM264 -8c-148 0 -223 92 -223 261s75 260 223 260s223 -91 223 -260s-75 -261 -223 -261zM132 598c-15 4 -25 12 -35 21c12 30 49 89 108 89c47 0 81 -43 123 -43c30 0 51 20 71 43
c15 -6 25 -13 35 -21c-13 -31 -51 -89 -105 -89c-53 0 -83 43 -127 43c-29 0 -50 -20 -70 -43z" />
    <glyph glyph-name="odieresis" unicode="&#xf6;" horiz-adv-x="528" 
d="M264 42c90 0 128 62 128 211s-38 210 -128 210s-127 -61 -127 -210s37 -211 127 -211zM264 -8c-148 0 -223 92 -223 261s75 260 223 260s223 -91 223 -260s-75 -261 -223 -261zM174 596c-35 0 -51 21 -51 57s16 56 51 56c34 0 51 -20 51 -56s-17 -57 -51 -57zM353 596
c-34 0 -50 21 -50 57s16 56 50 56c35 0 52 -20 52 -56s-17 -57 -52 -57z" />
    <glyph glyph-name="rcaron" unicode="&#x159;" horiz-adv-x="440" 
d="M37 0l4 39c32 5 49 11 71 27v308c0 54 -20 69 -75 71l3 32c46 8 91 24 132 36l19 -10l11 -75c30 45 77 85 129 85c48 0 96 -28 96 -88c0 -33 -20 -67 -57 -67c-24 0 -49 12 -55 33c5 5 11 21 11 30c0 21 -10 33 -31 33c-39 0 -91 -69 -91 -138v-250c20 -13 50 -23 85 -29
l-4 -37h-248zM197 590l-100 115l24 26l109 -83l110 83l24 -26l-100 -115c-10 -12 -21 -17 -34 -17s-24 6 -33 17z" />
    <glyph glyph-name="rcommaaccent" unicode="&#x157;" horiz-adv-x="440" 
d="M37 0l4 39c32 5 49 11 71 27v308c0 54 -20 69 -75 71l3 32c46 8 91 24 132 36l19 -10l11 -75c30 45 77 85 129 85c48 0 96 -28 96 -88c0 -33 -20 -67 -57 -67c-24 0 -49 12 -55 33c5 5 11 21 11 30c0 21 -10 33 -31 33c-39 0 -91 -69 -91 -138v-250c20 -13 50 -23 85 -29
l-4 -37h-248zM153 -233l-33 14c14 37 19 69 19 92c0 28 -8 44 -24 58c12 17 28 24 42 24c33 0 55 -20 55 -51c0 -39 -25 -93 -59 -137z" />
    <glyph glyph-name="ugrave" unicode="&#xf9;" horiz-adv-x="588" 
d="M89 166v210c0 54 -20 69 -75 71l3 32c48 8 99 24 143 37l21 -11v-351c0 -67 26 -113 93 -113c33 0 80 22 114 85v250c0 54 -20 69 -75 71l3 32c48 8 99 24 143 37l21 -11v-439c13 -10 44 -23 75 -29l-4 -37h-143l-11 68c-38 -50 -86 -76 -135 -76
c-115 0 -173 59 -173 174zM320 565l-112 90c-16 13 -27 24 -27 42c0 19 18 37 39 37c15 0 26 -5 34 -18l90 -125z" />
    <glyph glyph-name="uacute" unicode="&#xfa;" horiz-adv-x="588" 
d="M89 166v210c0 54 -20 69 -75 71l3 32c48 8 99 24 143 37l21 -11v-351c0 -67 26 -113 93 -113c33 0 80 22 114 85v250c0 54 -20 69 -75 71l3 32c48 8 99 24 143 37l21 -11v-439c13 -10 44 -23 75 -29l-4 -37h-143l-11 68c-38 -50 -86 -76 -135 -76
c-115 0 -173 59 -173 174zM246 565l-24 26l90 125c8 13 19 18 34 18c21 0 39 -18 39 -37c0 -18 -11 -29 -27 -42z" />
    <glyph glyph-name="ucircumflex" unicode="&#xfb;" horiz-adv-x="588" 
d="M89 166v210c0 54 -20 69 -75 71l3 32c48 8 99 24 143 37l21 -11v-351c0 -67 26 -113 93 -113c33 0 80 22 114 85v250c0 54 -20 69 -75 71l3 32c48 8 99 24 143 37l21 -11v-439c13 -10 44 -23 75 -29l-4 -37h-143l-11 68c-38 -50 -86 -76 -135 -76
c-115 0 -173 59 -173 174zM175 575l-24 26l100 115c9 11 20 17 33 17s24 -5 34 -17l100 -115l-24 -26l-110 83z" />
    <glyph glyph-name="udieresis" unicode="&#xfc;" horiz-adv-x="588" 
d="M89 166v210c0 54 -20 69 -75 71l3 32c48 8 99 24 143 37l21 -11v-351c0 -67 26 -113 93 -113c33 0 80 22 114 85v250c0 54 -20 69 -75 71l3 32c48 8 99 24 143 37l21 -11v-439c13 -10 44 -23 75 -29l-4 -37h-143l-11 68c-38 -50 -86 -76 -135 -76
c-115 0 -173 59 -173 174zM194 596c-35 0 -51 21 -51 57s16 56 51 56c34 0 51 -20 51 -56s-17 -57 -51 -57zM373 596c-34 0 -50 21 -50 57s16 56 50 56c35 0 52 -20 52 -56s-17 -57 -52 -57z" />
    <glyph glyph-name="yacute" unicode="&#xfd;" horiz-adv-x="550" 
d="M227 -86l26 81l-177 432c-12 30 -44 40 -77 46l3 33h235l-3 -32c-24 -3 -44 -7 -64 -24l125 -328l107 328c-19 14 -40 20 -64 24l3 32h210l-3 -32c-28 -4 -71 -12 -80 -37l-185 -536c-36 -105 -78 -144 -146 -144c-56 0 -99 35 -99 83c0 40 24 61 53 61
c12 0 26 -4 38 -12c-8 -11 -13 -24 -13 -37c0 -21 14 -37 36 -37c31 0 52 29 75 99zM247 565l-24 26l90 125c8 13 19 18 34 18c21 0 39 -18 39 -37c0 -18 -11 -29 -27 -42z" />
    <glyph glyph-name="ydieresis" unicode="&#xff;" horiz-adv-x="550" 
d="M227 -86l26 81l-177 432c-12 30 -44 40 -77 46l3 33h235l-3 -32c-24 -3 -44 -7 -64 -24l125 -328l107 328c-19 14 -40 20 -64 24l3 32h210l-3 -32c-28 -4 -71 -12 -78 -32l-187 -541c-36 -105 -78 -144 -146 -144c-56 0 -99 35 -99 83c0 40 24 61 53 61
c12 0 26 -4 38 -12c-8 -11 -13 -24 -13 -37c0 -21 14 -37 36 -37c31 0 52 29 75 99zM195 596c-35 0 -51 21 -51 57s16 56 51 56c34 0 51 -20 51 -56s-17 -57 -51 -57zM374 596c-34 0 -50 21 -50 57s16 56 50 56c35 0 52 -20 52 -56s-17 -57 -52 -57z" />
    <glyph glyph-name="Ldotaccent" unicode="&#x13f;" horiz-adv-x="566" 
d="M43 0l6 40c35 4 67 10 97 28v540c-30 17 -68 24 -103 28l5 40h296l-6 -40c-35 -4 -67 -10 -97 -28v-547h230c22 28 31 75 39 103l43 -6l-27 -158h-483zM436 388c-38 0 -56 23 -56 63s18 62 56 62s57 -22 57 -62s-19 -63 -57 -63z" />
    <glyph glyph-name="Rcommaaccent" unicode="&#x156;" horiz-adv-x="683" 
d="M48 0l6 40c44 5 72 13 97 28v540c-24 14 -57 23 -103 28l5 40h289c163 0 246 -60 246 -179c0 -90 -46 -145 -146 -169c26 -16 43 -42 63 -83l83 -177c20 -14 49 -22 89 -27l-6 -41h-162l-92 225c-32 76 -43 89 -115 89h-56v-246c20 -13 46 -20 103 -28l-5 -40h-296z
M246 363h49c133 0 196 44 196 136c0 87 -51 132 -149 132c-33 0 -46 -1 -96 -9v-259zM364 -233l-33 14c14 37 19 69 19 92c0 28 -8 44 -24 58c12 17 28 24 42 24c33 0 55 -20 55 -51c0 -39 -25 -93 -59 -137z" />
    <glyph glyph-name="uni00AD" unicode="&#xad;" horiz-adv-x="359" 
d="M30 241v58h299v-58h-299z" />
    <glyph glyph-name="foundryicon" horiz-adv-x="756" 
d="M147 161h86v209c0 10 6 14 27 14c33 0 50 -21 50 -65v-158h86v207c0 49 -39 84 -90 84l-56 -33c-3 -1 -7 -3 -11 -3c-5 0 -6 3 -6 9v136h-86v-400zM562 154l73 43v29c-11 -3 -21 -5 -31 -5c-32 0 -46 21 -46 67v104c0 7 3 11 11 11h67v42h-67c-7 0 -11 5 -11 12v32h-25
l-103 -65v-21h29c9 0 13 -3 13 -11v-153c0 -48 38 -85 90 -85zM40 92v491c0 61 32 93 92 93h491c61 0 93 -32 93 -93v-491c0 -60 -32 -92 -93 -92h-491c-60 0 -92 32 -92 92z" />
    <glyph glyph-name="hbar" unicode="&#x127;" horiz-adv-x="587" 
d="M33 0l4 39c32 5 49 11 71 27v486h-71v43h71c-1 50 -22 64 -75 66l3 32c48 8 99 24 143 37l21 -11v-124h137v-43h-137v-103c34 39 82 64 132 64c104 0 166 -55 166 -149v-298c13 -10 44 -23 75 -29l-4 -37h-237l3 37c27 4 51 14 71 29v288c0 73 -31 107 -92 107
c-45 0 -90 -31 -114 -76v-319c18 -13 44 -23 75 -29l-4 -37h-238z" />
    <glyph glyph-name="nbspace" unicode="&#xa0;" horiz-adv-x="450" 
 />
    <glyph glyph-name="A" unicode="A" horiz-adv-x="709" 
d="M0 0l6 40c29 4 57 10 82 28l222 609h82l240 -610c23 -17 52 -23 77 -27l-5 -40h-285l6 40c34 4 66 9 95 27l-61 160h-243l-57 -161c29 -16 66 -22 100 -26l-5 -40h-254zM236 283h202l-105 274z" />
    </font>
</defs>
</svg>
